<?xml version="1.0"?><svg width="640" height="480" xmlns="http://www.w3.org/2000/svg" xmlns:xlink="http://www.w3.org/1999/xlink">
 <title>angel_halo_with_wings</title>
 <metadata id="metadata2156">image/svg+xml</metadata>
 <defs>
  <symbol id="svg_32" xmlns:xlink="http://www.w3.org/1999/xlink">
   <defs>
    <filter id="svg_18" x="-0.092564" width="1.185129" y="-0.17055" height="1.3411">
     <feGaussianBlur stdDeviation="8.98418" id="svg_31"/>
    </filter>
   </defs>
   <metadata id="svg_19">image/svg+xml</metadata>
   <g id="svg_10">
    <path d="m227.456055,91.256927a106.118057,54.875561 0 1 1-212.236085,0a106.118057,54.875561 0 1 1212.236085,0z" id="svg_17" filter="url(#svg_18)" stroke-dashoffset="0" stroke-miterlimit="4" marker-mid="none" marker-start="none" stroke-width="5" stroke="#000000" fill-rule="evenodd" fill="none"/>
    <path id="svg_15" d="m86.062897,6.68373c-48.394867,7.01378 -84.062497,30.539258 -84.062497,58.531266l0,20c0,33.513672 51.057061,60.71875 113.968747,60.71875c62.911652,0 113.968719,-27.205078 113.968719,-60.71875l0,-20c0,-28.009705 -35.714661,-51.534017 -84.156219,-58.531266c2.66745,0.46391 5.31424,0.9494 7.875,1.53125c2.897186,0.65831 5.72348,1.38648 8.46875,2.1875c2.745239,0.80104 5.422943,1.68999 8,2.625c2.577057,0.93503 5.044922,1.93973 7.4375,2.999999c2.392548,1.060291 4.714417,2.16695 6.906219,3.34375c2.191833,1.176821 4.275208,2.402931 6.25,3.6875c1.974792,1.284592 3.821045,2.616381 5.5625,4.000021c1.741516,1.383631 3.383118,2.83853 4.875,4.3125c1.491943,1.47393 2.836426,2.9757 4.0625,4.53125c1.226135,1.555511 2.30603,3.152859 3.25,4.78125c0.94397,1.628349 1.760681,3.307518 2.40625,5c0.64563,1.692471 1.137817,3.408379 1.46875,5.15625c0.330933,1.747829 0.5,3.518028 0.5,5.3125c0,1.79446 -0.169067,3.564629 -0.5,5.3125c-0.330933,1.747829 -0.82312,3.463772 -1.46875,5.156246c-0.645569,1.692474 -1.46228,3.371613 -2.40625,5c-0.94397,1.628357 -2.023865,3.19445 -3.25,4.75c-0.564087,0.715637 -1.253723,1.394867 -1.875,2.09375c-9.86792,17.570374 -45.237305,30.59375 -87.374969,30.59375c-42.137695,-0.000038 -77.507046,-13.023376 -87.374996,-30.59375c-0.621281,-0.698883 -1.310921,-1.378113 -1.875,-2.09375c-1.22611,-1.55555 -2.33728,-3.121643 -3.28125,-4.75c-0.94397,-1.628387 -1.729431,-3.307526 -2.375,-5c-0.645601,-1.692474 -1.137821,-3.408417 -1.46875,-5.156246c-0.33094,-1.747871 -0.5,-3.51804 -0.5,-5.3125c0,-1.794472 0.16906,-3.564671 0.5,-5.3125c0.330929,-1.747871 0.823149,-3.463779 1.46875,-5.15625c0.645569,-1.692482 1.43103,-3.371651 2.375,-5c0.94397,-1.628391 2.05514,-3.225739 3.28125,-4.78125c1.22607,-1.55555 2.570549,-3.05732 4.0625,-4.53125c1.491909,-1.47397 3.13348,-2.928869 4.875,-4.3125c1.741478,-1.38364 3.5877,-2.715429 5.5625,-4.000021c1.974789,-1.284569 4.058159,-2.510679 6.25,-3.6875c2.191799,-1.1768 4.482418,-2.283459 6.875,-3.34375c2.39254,-1.060269 4.891689,-2.064969 7.46875,-2.999999c2.577068,-0.93501 5.254726,-1.82396 7.999996,-2.625c2.745262,-0.80102 5.571533,-1.52919 8.46875,-2.1875c2.53994,-0.57712 5.13623,-1.07013 7.78125,-1.53125z" stroke-dashoffset="0" stroke-miterlimit="4" marker-mid="none" marker-start="none" stroke-width="5" fill-rule="evenodd" fill="url(#svg_16)"/>
    <path id="svg_13" d="m86.062897,6.68373c-2.64502,0.46112 -5.24131,0.95413 -7.78125,1.53125c-2.897217,0.65831 -5.723503,1.38648 -8.46875,2.1875c-2.74527,0.80104 -5.422943,1.68999 -7.999996,2.625c-2.577061,0.93503 -5.07621,1.93973 -7.46875,2.999999c-2.392582,1.060291 -4.683201,2.16695 -6.875,3.34375c-2.191841,1.176821 -4.275211,2.402931 -6.25,3.6875c-1.9748,1.284592 -3.821022,2.616381 -5.5625,4.000021c-1.74152,1.383631 -3.383091,2.83853 -4.875,4.3125c-1.491951,1.47393 -2.83643,2.9757 -4.0625,4.53125c-1.22611,1.555511 -2.33728,3.152859 -3.28125,4.78125c-0.94397,1.628349 -1.729431,3.307518 -2.375,5c-0.645601,1.692471 -1.137821,3.408379 -1.46875,5.15625c-0.33094,1.747829 -0.5,3.518028 -0.5,5.3125c0,1.79446 0.16906,3.564629 0.5,5.3125c0.330929,1.747829 0.823149,3.463772 1.46875,5.156246c0.645569,1.692474 1.43103,3.371613 2.375,5c0.94397,1.628357 2.05514,3.19445 3.28125,4.75c0.564079,0.715637 1.253719,1.394867 1.875,2.09375c-0.603001,-1.073669 -1.154581,-2.144165 -1.5625,-3.25c7.083649,-19.202877 44.224941,-33.843746 88.937489,-33.843746c44.712578,0 81.853844,14.640869 88.937477,33.843746c-0.407913,1.105835 -0.959473,2.176331 -1.5625,3.25c0.621277,-0.698883 1.310913,-1.378113 1.875,-2.09375c1.226151,-1.55555 2.30603,-3.121643 3.25,-4.75c0.94397,-1.628387 1.760681,-3.307526 2.40625,-5c0.64563,-1.692474 1.137817,-3.408417 1.46875,-5.156246c0.330933,-1.747871 0.5,-3.51804 0.5,-5.3125c0,-1.794472 -0.169067,-3.564671 -0.5,-5.3125c-0.330933,-1.747871 -0.82312,-3.463779 -1.46875,-5.15625c-0.645569,-1.692482 -1.46228,-3.371651 -2.40625,-5c-0.94397,-1.628391 -2.023849,-3.225739 -3.25,-4.78125c-1.226059,-1.55555 -2.570557,-3.05732 -4.0625,-4.53125c-1.491882,-1.47397 -3.133469,-2.928869 -4.875,-4.3125c-1.741455,-1.38364 -3.587723,-2.715429 -5.5625,-4.000021c-1.974792,-1.284569 -4.058167,-2.510679 -6.25,-3.6875c-2.191803,-1.1768 -4.513672,-2.283459 -6.906219,-3.34375c-2.392578,-1.060269 -4.860443,-2.064969 -7.4375,-2.999999c-2.577057,-0.93501 -5.254761,-1.82396 -8,-2.625c-2.74527,-0.80102 -5.571564,-1.52919 -8.46875,-2.1875c-2.56076,-0.58185 -5.20755,-1.06734 -7.875,-1.53125c-9.518951,-1.37497 -19.480438,-2.1875 -29.812508,-2.1875c-10.36525,0 -20.359909,0.80397 -29.90625,2.1875l0.000008,0z" stroke-dashoffset="0" stroke-miterlimit="4" marker-mid="none" marker-start="none" stroke-width="5" fill-rule="evenodd" fill="url(#svg_14)"/>
    <path id="svg_11" d="m212.840942,56.146481a96.875977,52.01355 0 1 1-193.751923,0a96.875977,52.01355 0 1 1193.751923,0z" stroke-dashoffset="0" stroke-miterlimit="4" marker-mid="none" marker-start="none" stroke-width="5" stroke="url(#svg_12)" fill-rule="evenodd" fill="none"/>
   </g>
  </symbol>
  <linearGradient id="svg_26">
   <stop offset="0" id="svg_30" stop-color="#f4e86c"/>
   <stop id="svg_29" offset="0.66028" stop-color="#f4e86c"/>
   <stop id="svg_28" offset="0.836735" stop-color="#d8b436"/>
   <stop offset="1" id="svg_27" stop-color="#bc8000"/>
  </linearGradient>
  <radialGradient xlink:href="#svg_26" id="svg_16" cx="260.4259" cy="619.104" fx="260.4259" fy="619.104" r="113.96875" gradientTransform="matrix(-7.2141e-08, 0.704172, -1.22426, -1.25423e-07, 1198.8, 112.873)" gradientUnits="userSpaceOnUse"/>
  <linearGradient id="svg_23">
   <stop offset="0" id="svg_25" stop-color="#f0e464"/>
   <stop offset="1" id="svg_24" stop-color="#d4a41c"/>
  </linearGradient>
  <radialGradient xlink:href="#svg_23" id="svg_14" cx="248.68613" cy="509.16125" fx="248.68613" fy="509.16125" r="96.875" gradientTransform="matrix(1.64359, 1.31046e-06, -4.49005e-08, 0.658971, 36.1199, -92.3195)" gradientUnits="userSpaceOnUse"/>
  <linearGradient id="svg_20">
   <stop offset="0" id="svg_22" stop-color="#fcfc80"/>
   <stop offset="1" id="svg_21" stop-color="#ecd450"/>
  </linearGradient>
  <linearGradient xlink:href="#svg_20" id="svg_12" x1="-0.51925" y1="-Infinity" x2="-0.51925" y2="Infinity"/>
 </defs>
 <g>
  <title>Layer 1</title>
  <path d="m226.763092,461.382416c-0.971466,-1.096558 -3.020782,-1.268738 -9.781921,-0.821716c-7.372711,0.487427 -9.190002,0.284912 -13.169281,-1.467377c-2.53894,-1.118073 -4.99118,-2.615784 -5.449432,-3.328247c-1.526337,-2.373108 -4.450211,-2.613251 -8.463531,-0.69516c-5.589706,2.671509 -13.403641,1.735107 -18.158691,-2.176147c-4.572433,-3.761047 -5.644318,-5.807007 -6.374588,-12.167511l-0.608582,-5.300598l-5.632721,-0.041687c-8.789063,-0.065033 -14.972412,-2.094391 -18.560181,-6.091461c-3.361069,-3.744537 -3.2547,-2.416962 -1.660904,-20.731079c0.208389,-2.394409 -0.093857,-2.830444 -1.79776,-2.593445c-11.307327,1.572754 -19.481453,0.589935 -20.741623,-2.493927c-0.366058,-0.895782 -1.442444,-2.276337 -2.391953,-3.067871c-2.335358,-1.946777 -4.023941,-9.168335 -3.304962,-14.134247c0.434189,-2.99881 0.218628,-4.147461 -0.824638,-4.394165c-0.776917,-0.183716 -5.099403,-1.430145 -9.605583,-2.769867c-4.506203,-1.339691 -10.958221,-3.200439 -14.337837,-4.134949c-8.798576,-2.432922 -17.916153,-6.109375 -21.692841,-8.747192c-1.792152,-1.251709 -4.326874,-2.668945 -5.632732,-3.149384c-4.71534,-1.734833 -12.203491,-7.542725 -16.20842,-12.571442c-4.71637,-5.922058 -4.312981,-4.959442 -4.506069,-10.753021c-0.108532,-3.256927 -0.762199,-5.06073 -2.329712,-6.428833c-4.033009,-3.519958 -8.29019,-14.435394 -10.433418,-26.751282c-0.578661,-3.325226 -0.80702,-6.644165 -0.507481,-7.375427c0.29952,-0.731262 -1.63059,-5.566223 -4.28915,-10.744324c-3.025709,-5.893158 -5.01864,-11.209106 -5.32805,-14.211914c-0.28116,-2.728699 -1.29556,-5.624603 -2.35254,-6.716064c-3.23409,-3.339569 -9.16851,-16.209534 -10.20284,-22.126801c-2.11908,-12.123047 -0.35803,-19.417068 6.20672,-25.707504l3.09727,-2.96785l-0.20867,-15.375015l-0.20868,-15.375031l6.466061,-11.992966c3.55632,-6.596146 7.063759,-12.324036 7.794319,-12.728668c2.05122,-1.136139 2.99715,-9.029556 1.31027,-10.933731c-0.76881,-0.867844 -1.23361,-1.619476 -1.032881,-1.670303c0.200731,-0.050812 0.04001,-2.935135 -0.357159,-6.409607c-0.574171,-5.022812 -0.280981,-7.775055 1.43092,-13.432114c2.44676,-8.085472 6.9513,-16.893822 10.191889,-19.929741c1.20734,-1.131035 2.19516,-2.614189 2.19516,-3.29586c0,-0.681671 2.073872,-3.146179 4.608601,-5.476677c3.18169,-2.925354 4.608589,-5.030304 4.608589,-6.79866c0,-3.977928 2.601803,-8.87809 7.128811,-13.426193c2.27515,-2.285744 4.13665,-4.921837 4.13665,-5.857979c0,-6.203285 8.278927,-17.967617 19.408619,-27.579479c8.369308,-7.227959 13.655563,-9.88789 17.757149,-8.935051c3.26638,0.758812 7.896049,3.984501 7.896049,5.501541c0,0.714561 -1.77182,4.678822 -3.93737,8.80946c-10.754753,20.514061 -13.456917,28.399399 -14.205963,41.455414c-0.33519,5.84201 -0.0737,12.78318 0.63253,16.790169c0.66214,3.757019 1.697815,9.637299 2.301476,13.067276c0.603661,3.429993 2.368233,9.042709 3.921272,12.472702c1.55307,3.429977 3.426086,7.747452 4.162308,9.594376c0.736198,1.846909 2.119629,4.437393 3.074287,5.756622c0.954643,1.319229 2.77758,4.341461 4.050957,6.716064c1.273407,2.374603 2.946594,4.662735 3.718193,5.084732c0.771645,0.421967 1.402977,1.228333 1.402977,1.791901c0,0.885239 4.5439,7.00737 13.061234,17.597778c1.269302,1.578247 4.034454,5.319168 6.144791,8.313141c2.110321,2.993973 6.602097,7.678406 9.981735,10.409851c3.379623,2.731461 9.486908,8.013306 13.571732,11.737442c9.66243,8.809204 20.491425,15.862534 44.399048,28.918716c4.077515,2.226746 11.52124,7.172333 23.959778,15.918793c4.506165,3.16861 10.266907,7.044556 12.801636,8.61319c5.855072,3.623444 17.826752,15.967438 19.101654,19.695709c0.360229,1.053314 1.213135,2.348572 1.895355,2.878296c2.192261,1.702148 4.745087,9.337067 5.338257,15.965546c1.013367,11.324005 -3.839447,20.895538 -12.535675,24.725067c-2.488251,1.095703 -5.287415,3.083588 -6.220337,4.417511c-2.303192,3.292999 -1.440399,10.014374 1.760651,13.716217c2.623688,3.03418 12.141632,9.033691 16.283875,10.264313c9.743286,2.894684 15.710541,11.434967 15.563324,22.274139l-0.085815,6.320068l4.904785,4.428772c5.657898,5.108795 7.737366,8.492249 8.758881,14.251282c0.636597,3.588867 1.392273,4.513916 6.009857,7.356476c6.571686,4.045502 13.986847,10.576324 13.986847,12.318695c0,0.720734 -1.036926,2.21814 -2.304291,3.327576c-4.189819,3.667786 -15.650909,3.733154 -34.116455,0.194702c-7.861298,-1.506409 -14.778656,-0.594208 -18.232239,2.404236c-2.62674,2.280609 -4.953369,8.942108 -6.755341,19.341797c-1.059418,6.114288 -2.298767,8.324341 -6.084381,10.849609c-3.599152,2.40094 -12.468292,2.769684 -14.391815,0.598389zm9.204681,-2.946503c3.956818,-1.916901 5.949341,-5.748199 8.183411,-15.735535c2.132751,-9.534393 7.066376,-18.766815 10.487701,-19.625885c3.385681,-0.850128 10.561035,-0.721649 13.251312,0.237305c8.674866,3.092133 14.207001,4.198425 22.035461,4.406586c10.581879,0.281372 12.577179,-0.104553 12.577179,-2.432556c0,-2.551208 -6.677277,-8.234589 -11.848267,-10.084656c-4.163116,-1.489471 -4.49408,-1.877228 -5.150757,-6.034637c-0.85025,-5.382996 -6.119049,-13.427124 -10.803284,-16.493927c-4.753632,-3.112213 -4.787689,-3.19632 -4.396057,-10.858307c0.477997,-9.352142 -2.205414,-13.776855 -10.558563,-17.410248c-10.70224,-4.655151 -18.130798,-9.371826 -21.763397,-13.81842c-3.36084,-4.113922 -3.576904,-4.811707 -3.463287,-11.18457c0.171265,-9.60202 3.763947,-14.790436 10.241547,-14.790436c4.009888,0 6.580566,-2.714355 9.504608,-10.035828c1.87439,-4.693268 1.919189,-5.518616 0.589569,-10.858124c-2.38385,-9.573273 -8.923187,-20.354065 -16.158234,-26.638702c-3.490784,-3.032257 -8.190369,-7.122955 -10.443481,-9.090454c-2.253052,-1.967468 -5.709503,-4.342712 -7.680969,-5.278259c-1.971466,-0.935516 -6.119202,-3.497711 -9.217194,-5.693726c-3.097992,-2.195984 -11.623901,-7.360565 -18.946457,-11.476776c-30.024887,-16.878006 -50.807343,-31.705826 -61.447906,-43.84169c-34.690399,-39.565369 -47.386642,-63.943665 -51.236267,-98.379715c-0.420204,-3.758881 -0.105888,-8.632729 0.866226,-13.432129c0.839142,-4.142921 2.098549,-10.630524 2.798706,-14.416855c0.700134,-3.786331 2.781853,-9.830788 4.62603,-13.432117c1.844185,-3.601341 2.968819,-6.920662 2.499199,-7.376263c-1.351181,-1.310837 -9.638794,3.07571 -14.776596,7.82114c-2.577026,2.380184 -6.168655,7.177372 -7.98143,10.660404c-2.949875,5.667915 -3.283569,7.163765 -3.178467,14.248131c0.064613,4.353439 -0.284637,7.915359 -0.77607,7.915359c-1.120731,0 -4.01852,-5.154587 -4.01852,-7.148132c0,-2.861267 -1.97834,-1.454269 -2.968349,2.111092c-1.145988,4.127205 -2.552059,16.495964 -2.400051,21.112434c0.158161,4.802933 3.974331,11.348663 9.720974,16.673904c5.34938,4.957153 5.072235,7.81221 -0.373962,3.852371c-1.343342,-0.9767 -3.549351,-2.32222 -4.902271,-2.990051l-2.45985,-1.214233l0.682621,4.665619c0.375439,2.566101 1.821308,8.121155 3.213039,12.344574c2.782249,8.443085 7.184113,13.832642 14.090118,17.251648c2.107651,1.043472 3.832115,2.238998 3.832115,2.656738c0,1.160156 -5.294624,-0.295013 -8.351166,-2.295242c-3.412979,-2.23349 -3.938431,-2.225754 -3.938431,0.057907c0,3.154419 12.528931,21.189636 14.720261,21.189636c1.935143,0 9.264656,3.754852 8.580544,4.395737c-0.199104,0.186539 -2.066383,-0.150925 -4.149521,-0.749878c-4.42189,-1.271378 -5.673157,-0.598969 -3.676453,1.975647c0.782829,1.00943 3.92746,5.122635 6.988052,9.140442c3.060577,4.017822 5.924927,7.305115 6.36525,7.305115c0.440308,0 2.980667,1.295242 5.645233,2.878311c2.664566,1.583084 5.850159,2.878311 7.079094,2.878311c2.389595,0 5.281357,2.497513 4.135071,3.571365c-0.595734,0.558121 -4.403534,-0.224411 -11.123055,-2.285889c-3.237503,-0.993225 -1.867996,1.008408 5.99736,8.765564c6.337708,6.250519 8.608589,7.854507 12.395531,8.75531c7.947029,1.89035 9.971428,0.233261 7.368217,-6.031326c-1.411774,-3.39743 -1.39267,-15.599823 0.026466,-16.929352c1.848289,-1.731522 2.459129,0.101593 2.743996,8.234497c0.243774,6.960022 0.710587,8.663727 3.876877,14.149139c6.294037,10.904114 17.855316,21.871552 33.904099,32.162628c2.81636,1.805939 6.964096,4.500214 9.217194,5.987274c6.800262,4.488251 24.240509,12.843262 25.707916,12.315735c4.481445,-1.611084 14.7453,5.391632 14.7453,10.060272c0,3.476044 -1.893097,3.616943 -5.136841,0.382233c-1.331818,-1.328094 -4.133545,-2.895264 -6.226105,-3.482574c-3.472687,-0.974731 -4.184814,-0.826874 -8.162903,1.695129c-11.742493,7.444458 -7.309219,22.779358 7.259033,25.109253c2.433685,0.389191 4.601654,1.204559 4.817749,1.811829c0.618958,1.739594 -2.96994,2.316681 -8.44635,1.358215c-4.163315,-0.728668 -5.675446,-0.569489 -8.806534,0.926941c-4.687103,2.240143 -7.741409,5.787872 -9.123978,10.597961c-0.882889,3.071747 -0.729126,4.298859 0.917709,7.322968c2.201523,4.042786 6.968414,8.890808 8.724747,8.873291c0.627258,-0.006287 3.520065,-0.60495 6.428467,-1.330383c3.806366,-0.949463 5.599762,-1.026917 6.400848,-0.276459c1.966675,1.842438 1.212524,3.363525 -3.495789,7.050537c-2.534729,1.984894 -4.608582,4.023224 -4.608582,4.52951c0,0.506348 -0.736649,1.683197 -1.637024,2.615204c-2.660248,2.753845 -1.018967,8.791321 3.371643,12.402832c4.161438,3.422974 8.054779,5.030762 10.434204,4.308838c0.911346,-0.276489 2.770172,-2.037506 4.130737,-3.913391c3.192169,-4.401154 5.604889,-5.651215 7.273071,-3.768097c1.006439,1.136078 0.923676,1.848755 -0.415451,3.577698c-9.353867,12.076813 -10.366684,18.842346 -3.415146,22.813141c5.153946,2.94397 8.070816,2.432861 13.838013,-2.424774c2.819214,-2.374603 5.3508,-4.317474 5.625702,-4.317474c0.274902,0 1.27063,1.102051 2.212677,2.449005c1.660889,2.374695 1.619415,2.548676 -1.367889,5.736084c-3.462067,3.694 -4.766266,8.384247 -3.746887,13.474701c0.570496,2.848938 1.41452,3.73996 4.978577,5.255859c7.042816,2.995483 9.976227,2.245422 13.663483,-3.493622c1.079468,-1.680145 1.238037,-1.697235 1.882568,-0.202606c1.052002,2.439484 -6.602295,19.955292 -8.720337,19.955292c-1.462189,0 -1.206207,-2.961151 0.52475,-6.070251c0.932739,-1.675293 1.071472,-2.575226 0.362915,-2.354004c-0.630859,0.197021 -2.811005,3.355804 -4.844727,7.019562c-4.037445,7.273499 -5.216583,8.520721 -6.722015,7.110382c-0.64151,-0.601044 -0.368927,-2.508514 0.769897,-5.387146c0.969727,-2.451172 1.580627,-4.627686 1.357544,-4.83667c-1.30545,-1.222992 -4.989655,7.615631 -7.609833,18.25647l-3.028534,12.299225l2.684784,2.332214c3.158661,2.743866 3.427643,2.77594 7.347839,0.876801zm-4.64212,-5.831909c5.673584,-4.627411 7.680969,-5.628052 7.680969,-3.828796c0,1.745239 -5.723969,5.851624 -9.217194,6.612366c-2.236481,0.487091 -2.042206,0.13504 1.536224,-2.783569zm10.186188,-46.52478c-1.287659,-1.951813 1.264679,-3.117859 3.546753,-1.620392c1.170441,0.768005 1.823761,1.681488 1.451813,2.029907c-1.066376,0.999023 -4.240936,0.738922 -4.998566,-0.409515zm-22.987854,-17.548523c0,-1.887939 2.399506,-3.498627 3.909546,-2.624359c0.704285,0.407776 0.985138,1.462463 0.624176,2.343719c-0.788452,1.924927 -4.533722,2.156738 -4.533722,0.28064zm-19.49118,-24.183929c-1.191772,-2.936584 -0.555725,-4.236938 2.072357,-4.236938c2.378448,0 3.68219,3.4422 2.016052,5.322906c-1.7948,2.026031 -2.949982,1.719177 -4.088409,-1.085968zm-11.488815,-30.220398c-3.564758,-1.94162 -1.470108,-6.637421 2.960754,-6.637421c3.11644,0 3.815277,1.412445 2.217789,4.482574c-1.567169,3.011841 -2.722504,3.492584 -5.178543,2.154846zm8.024155,-32.452057c-1.173615,-1.214935 -1.508316,-2.583984 -1.049973,-4.294861c0.741852,-2.769012 2.200531,-3.149292 4.924057,-1.2836c1.44165,0.987579 1.592499,1.720276 0.770996,3.744568c-1.400879,3.451782 -2.617981,3.932312 -4.645081,1.833893zm-56.709152,-68.580261c-2.277054,-2.31427 -4.808884,-5.444443 -5.626297,-6.955933c-1.811478,-3.349686 -3.185074,-9.954346 -2.062363,-9.916519c0.447968,0.015091 2.888367,3.297653 5.423096,7.294586c2.534729,3.996918 5.875946,8.115585 7.424957,9.152542c1.548996,1.036987 2.816376,2.503632 2.816376,3.259247c0,2.693359 -3.901215,1.30722 -7.975769,-2.833923zm78.587692,221.067291c2.466614,-1.236694 3.063873,-2.845642 4.640015,-12.499329c0.964752,-5.909119 2.561462,-10.533478 5.797272,-16.790161c2.456207,-4.749237 4.634705,-9.001678 4.841095,-9.44986c1.23407,-2.679565 -5.48111,3.293457 -9.573456,8.515411c-2.677216,3.416229 -5.252472,6.211365 -5.722809,6.211365c-1.939514,0 2.287964,-9.178528 6.260132,-13.591705c2.351013,-2.612061 4.109344,-4.902771 3.907379,-5.090546c-0.641693,-0.596558 -4.346039,2.707031 -8.038605,7.168976c-4.788727,5.78656 -8.202637,9.260559 -8.202637,8.347046c0,-1.383789 4.305084,-8.781372 8.486908,-14.583374c3.673676,-5.097015 2.598846,-5.891571 -1.297791,-0.959442c-0.833832,1.055359 -2.988708,3.446838 -4.788635,5.314362c-1.799957,1.867523 -5.604767,8.413635 -8.45517,14.546936c-4.801727,10.331848 -5.117462,11.47821 -4.295929,15.597717c0.48764,2.445435 1.057404,4.569489 1.266052,4.720093c4.890167,3.529236 11.124847,4.573761 15.176178,2.542511zm-11.565613,-4.659546c-2.304413,-2.385498 -2.245178,-4.335693 0.09729,-3.202637c0.985718,0.476776 3.499481,1.155457 5.586121,1.508179c2.756744,0.465973 3.636688,1.025085 3.218872,2.045166c-0.826508,2.017822 -6.843231,1.780792 -8.902283,-0.350708zm1.386017,-6.855103c-1.203064,-0.712555 -1.261841,-1.153778 -0.276703,-2.07666c0.985107,-0.922913 1.799286,-0.896973 3.831909,0.122131c1.419556,0.711731 2.581024,1.652893 2.581024,2.0914c0,1.079834 -4.241699,0.985229 -6.13623,-0.136871zm-23.972443,7.729584c1.633057,-0.4841 4.121323,-1.114777 5.52951,-1.401581c1.668564,-0.339813 3.036148,-1.620636 3.926346,-3.677216c0.751312,-1.735657 1.763916,-4.019257 2.250259,-5.074615c0.486313,-1.055389 2.286499,-5.156982 4.000336,-9.114655c3.134918,-7.239227 8.021881,-14.549805 16.339111,-24.442383c2.47348,-2.941956 4.191071,-5.635803 3.816895,-5.986328c-0.374176,-0.350555 -2.858765,1.333069 -5.521332,3.741364c-6.045959,5.468536 -14.570282,10.25412 -14.570282,8.17981c0,-0.780975 1.036926,-2.077484 2.304291,-2.881104c1.267365,-0.803619 4.378143,-3.284241 6.912872,-5.512482c4.468994,-3.92865 3.13913,-3.58255 -2.048248,0.533051c-2.977295,2.362152 -11.032806,5.798187 -11.833908,5.047699c-0.301163,-0.282166 2.3535,-2.677032 5.899216,-5.321991c12.393463,-9.244934 13.324585,-12.529968 1.124329,-3.966675c-10.082535,7.076904 -23.181137,18.475098 -24.871185,21.642548c-0.801178,1.501556 -2.435959,3.809509 -3.632813,5.128723c-1.196854,1.319244 -2.785248,4.218842 -3.529755,6.443604c-1.835983,5.486328 0.487152,11.41452 5.882492,15.010834c4.322159,2.881012 4.057388,2.826508 8.021866,1.651398zm-4.967865,-4.953369c-1.844269,-1.006348 -4.864594,-5.724915 -4.864594,-7.599854c0,-0.580719 1.623672,0.10434 3.608185,1.522339c2.517899,1.799194 4.838898,2.578247 7.681,2.578247c4.149765,0 5.16571,1.209045 2.843842,3.384216c-1.489105,1.39505 -6.801758,1.460968 -9.268433,0.115051zm0.113495,-7.566742c-1.973907,-1.540527 -2.09758,-1.892822 -0.673721,-1.918854c2.287247,-0.04187 6.96109,1.972656 6.96109,3.000397c0,1.48584 -3.845322,0.824371 -6.287369,-1.081543zm-8.396652,-16.582214c4.51564,-4.353455 9.057526,-9.144073 10.093079,-10.645844c1.035553,-1.50177 4.911682,-4.632324 8.613571,-6.956787c8.991852,-5.646057 17.924469,-13.334717 17.043549,-14.670044c-0.96698,-1.465759 -3.323883,-1.343506 -3.958313,0.205353c-0.63797,1.557587 -13.355118,7.361816 -16.12973,7.361816c-2.959793,0 -2.438126,-1.257935 1.326141,-3.197723c2.948288,-1.519318 12.044952,-8.353119 9.473221,-7.116699c-0.563248,0.270813 -3.32843,1.448486 -6.144791,2.617096c-2.81636,1.168579 -6.383896,2.695923 -7.927887,3.394073c-1.723862,0.77948 -3.042419,0.912872 -3.416611,0.345642c-0.914383,-1.386017 1.679153,-3.841125 5.711792,-5.406891c4.684555,-1.818878 13.313705,-7.047424 13.313705,-8.066986c0,-1.538544 -2.823181,-0.768433 -9.319733,2.542297c-11.334152,5.776062 -25.712006,12.006104 -27.740585,12.020233c-2.417648,0.016846 -11.536011,4.577301 -13.73085,6.867371c-3.281708,3.423981 -4.357025,5.804871 -5.396271,11.947754c-1.455093,8.601013 1.783203,14.490448 8.648956,15.729706c10.069977,1.817627 10.63414,1.616394 19.540756,-6.970367zm-20.98056,1.439178c-2.706223,-2.146118 -3.439194,-3.554199 -3.92807,-7.545807c-0.388123,-3.169098 -0.193542,-5.14325 0.549362,-5.573395c0.785248,-0.454651 1.150406,0.688599 1.150406,3.601746c0,2.751953 0.685883,5.06134 1.931076,6.501923c1.689651,1.954834 2.721603,2.207855 8.254425,2.023773c6.937653,-0.230804 7.547592,1.004059 1.298965,2.629883c-5.274841,1.372437 -5.513031,1.330261 -9.256165,-1.638123zm4.121307,-5.228973c-1.708817,-1.600861 -1.536484,-3.645844 0.307236,-3.645844c0.955841,0 1.536209,0.906128 1.536209,2.39859c0,2.735016 -0.148285,2.835327 -1.843445,1.247253zm89.918777,2.533875c0,-0.232697 -0.460815,-0.423096 -1.024109,-0.423096c-0.563263,0 -1.024139,0.457245 -1.024139,1.016083c0,0.558838 0.460876,0.749207 1.024139,0.423096c0.563293,-0.326172 1.024109,-0.783386 1.024109,-1.016083zm-107.928009,-18.871826c1.624954,-1.176056 3.565094,-2.68866 4.311432,-3.361389c4.582779,-4.130951 11.330139,-7.347656 23.222229,-11.070831c3.379623,-1.058105 8.535767,-2.943573 11.458054,-4.189911c2.922318,-1.246338 5.594376,-2.266083 5.937958,-2.266083c0.343582,0 3.196976,-1.541534 6.340912,-3.425629c6.396133,-3.833099 6.417114,-6.291382 0.032318,-3.792145c-3.929642,1.538177 -14.039978,2.021118 -14.039978,0.670624c0,-0.434784 3.456436,-1.806061 7.680984,-3.047211c4.224548,-1.241211 7.680969,-2.662811 7.680969,-3.159149c0,-0.501953 -1.022537,-0.594269 -2.304276,-0.208008c-3.865143,1.164734 -23.299011,1.767944 -23.299011,0.723206c0,-1.046112 5.71022,-2.126434 11.325745,-2.1427c2.004608,-0.005798 4.539337,-0.64444 5.632736,-1.419189c1.093369,-0.77478 2.738037,-1.422363 3.6548,-1.439148c1.843933,-0.033752 4.938324,-2.908813 3.130707,-2.908813c-0.59729,0 -3.994949,0.627716 -7.550369,1.394928c-3.555405,0.767242 -10.151245,1.631775 -14.65741,1.921204c-16.554855,1.063293 -19.698975,1.748871 -30.133667,6.570465c-5.381958,2.486847 -10.223572,7.875305 -12.769386,14.211639c-2.217308,5.518738 -2.382469,6.731812 -1.313225,9.645599c2.393364,6.522034 4.502457,8.152283 12.07402,9.332611c0.346497,0.054016 1.959503,-0.863983 3.584457,-2.04007zm-5.750626,-4.30014c-2.981842,-1.01297 -6.144806,-4.477509 -6.144806,-6.730652l0,-2.280792l2.304298,2.236511c1.267349,1.230103 3.607857,2.769653 5.201103,3.421234c4.005615,1.638214 2.743912,4.748138 -1.360596,3.353699zm-0.049515,-7.79776c-3.184738,-2.415924 -1.765373,-4.522766 1.639099,-2.432953c2.42424,1.488068 3.454453,4.196472 1.596252,4.196472c-0.500854,0 -1.956757,-0.793579 -3.235352,-1.763519zm-13.32254,-12.790436c1.561249,-1.569946 1.79184,-2.394897 0.938614,-3.358032c-0.622086,-0.70224 -1.784302,-1.276764 -2.582687,-1.276764c-0.798386,0 -3.391884,-0.964081 -5.763344,-2.142365c-4.22699,-2.10025 -4.256119,-2.148712 -1.481285,-2.463593c2.611282,-0.296387 2.373306,-0.548065 -3.072388,-3.249695c-6.664581,-3.306244 -6.939667,-3.48587 -6.281982,-4.10202c0.26088,-0.244385 2.987625,0.182251 6.059433,0.94809c10.917442,2.721832 12.248032,1.50177 2.000656,-1.834473c-14.347565,-4.671112 -22.825005,-8.572906 -35.332565,-16.262085c-6.258339,-3.847412 -12.544361,-9.832245 -11.426762,-10.879242c0.339691,-0.318237 2.22501,0.569977 4.189632,1.973816c5.618637,4.014832 30.855598,15.47226 41.271965,18.737244c9.927704,3.111816 11.539055,3.424438 11.539055,2.238678c0,-0.863037 -9.413528,-5.02536 -11.41066,-5.04541c-2.069283,-0.020782 -10.388115,-2.856384 -11.955971,-4.075409c-0.750168,-0.583252 -5.362389,-2.862 -10.249405,-5.063873c-19.086258,-8.599487 -35.330208,-20.678345 -48.116337,-35.7789c-1.86245,-2.199524 -3.82111,-3.999146 -4.35257,-3.999146c-1.35446,0 -1.20682,9.23938 0.213551,13.363983c2.311729,6.713043 6.204258,14.021301 8.89225,16.695313c1.501251,1.493439 5.609921,4.645447 9.130371,7.004425c3.52047,2.358948 6.400829,4.662994 6.400829,5.120056c0,1.713074 -2.697952,1.597656 -6.890423,-0.294769c-2.38155,-1.075012 -4.674919,-1.631531 -5.096367,-1.236694c-0.810081,0.758911 8.954967,9.932098 15.129601,14.212585c4.328327,3.00058 10.780121,4.797882 17.851906,4.973083c3.808739,0.09436 5.120651,0.495544 5.120651,1.56601c0,0.791534 -1.063507,1.580383 -2.363312,1.752991c-3.026016,0.401825 -2.436356,2.017792 1.692932,4.639465c3.010803,1.911499 7.35405,3.326202 18.080627,5.889221c2.253082,0.538361 5.939964,1.646118 8.193054,2.4617c5.561111,2.01297 7.246872,1.92334 9.670929,-0.514191zm6.203117,-8.049469c0,-0.232697 -0.718498,-0.423096 -1.596634,-0.423096c-0.878166,0 -1.307159,0.438782 -0.953377,0.975098c0.584595,0.886108 2.550011,0.460663 2.550011,-0.552002zm-8.00103,-1.078522c-0.739304,-0.27713 -1.622604,-0.243042 -1.962914,0.075745c-0.340317,0.318848 0.264565,0.545593 1.34417,0.503937c1.193054,-0.046051 1.43573,-0.273376 0.618744,-0.579681zm68.288757,-11.179535c4.739243,-0.352173 7.224976,-1.551178 7.289352,-3.516022c0.008636,-0.263885 -5.86026,-0.479736 -13.042023,-0.479736c-11.282059,0 -14.00386,-0.319702 -20.015564,-2.351044c-3.826813,-1.29303 -7.454895,-2.912079 -8.062424,-3.59787c-1.532959,-1.730438 0.485428,-1.639679 4.265991,0.191864c3.201965,1.551208 27.963989,2.429352 29.437439,1.043976c1.945068,-1.828796 -3.959976,-4.148041 -12.215118,-4.797516c-9.325699,-0.733704 -24.59285,-4.490662 -25.20163,-6.20166c-0.482712,-1.356628 -0.031021,-1.340332 7.468155,0.269714c3.379623,0.725616 10.40773,1.615173 15.618011,1.976746c8.23558,0.571533 9.473221,0.460022 9.473221,-0.853729c0,-0.831177 -0.214584,-1.5112 -0.476852,-1.5112c-0.262268,0 -5.522614,-0.659302 -11.689651,-1.465118c-11.607254,-1.516663 -21.142105,-3.900604 -35.792984,-8.949127c-8.6856,-2.99292 -10.870941,-3.101715 -18.741898,-0.932922c-3.027023,0.834076 -3.958588,1.709381 -5.017059,4.713959c-1.113983,3.16217 -1.048874,4.305176 0.455307,7.995056c3.478302,8.532471 15.855881,15.202698 34.394379,18.534943c4.46698,0.802948 30.694901,0.758881 41.853348,-0.070313zm-54.615143,-7.21463c-7.368149,-1.340088 -8.625488,-1.909332 -13.057693,-5.91156c-3.603897,-3.254272 -4.904465,-5.1539 -4.904465,-7.163544l0,-2.734863l3.733398,3.497559c2.053375,1.923645 4.588112,3.751709 5.632721,4.062317c1.044624,0.310608 1.89933,0.92923 1.89933,1.374725c0,0.445496 3.341225,2.005524 7.42495,3.466736c12.209259,4.368591 11.922745,5.709625 -0.728241,3.40863zm-1.57605,-7.936829c0,-0.496094 -1.722351,-1.854004 -3.827454,-3.017578c-5.129745,-2.835449 -1.94899,-3.458771 3.750214,-0.734924c4.612457,2.204437 5.22142,3.394196 2.125504,4.152649c-1.126556,0.276001 -2.048264,0.095917 -2.048264,-0.400146zm-27.782211,-0.504913c-0.773064,-0.872589 -1.635994,-3.953918 -1.917618,-6.847443c-0.451485,-4.638336 -0.875656,-5.444275 -3.584465,-6.81012c-13.160545,-6.636108 -26.36615,-16.417358 -22.16497,-16.417358c0.482925,0 5.082336,2.590485 10.220909,5.756622c5.13858,3.166138 9.940804,5.756622 10.671623,5.756622c0.730797,0 2.353798,0.672638 3.606674,1.494751c2.651566,1.739899 5.067047,0.981323 3.284035,-1.031342c-0.625908,-0.706512 -3.528648,-2.454529 -6.450539,-3.88443c-14.178452,-6.93866 -43.717491,-29.911652 -43.717491,-33.999817c0,-0.526154 -0.597759,-0.956665 -1.32835,-0.956665c-2.785149,0 -17.723829,-17.476044 -16.510658,-19.315033c1.031279,-1.563232 2.129299,-0.833832 5.606331,3.724182c4.759239,6.238831 27.0793,26.987427 33.28693,30.943329c2.78363,1.773895 6.952011,4.657959 9.263115,6.409058c2.311104,1.751099 4.532372,3.183868 4.936157,3.183868c0.403755,0 2.660583,1.218445 5.01516,2.707642c4.732094,2.99292 17.58223,9.765045 18.529274,9.765045c0.33094,0 0.601723,-0.57901 0.601723,-1.286713c0,-0.707672 -2.419533,-2.516632 -5.376686,-4.019928c-6.592567,-3.351318 -12.889717,-7.101929 -15.618034,-9.302124c-1.126541,-0.908508 -4.44429,-3.282074 -7.372757,-5.274658c-14.144684,-9.624146 -27.324162,-21.515869 -41.231884,-37.203125c-5.496338,-6.199615 -14.602959,-20.637482 -19.450848,-30.837845c-2.09927,-4.417068 -4.052861,-8.252106 -4.341281,-8.522308c-0.28843,-0.270203 -1.7811,1.207581 -3.31708,3.283981c-2.52604,3.414825 -2.803061,4.630203 -2.90145,12.729919c-0.081941,6.74588 0.315209,9.664673 1.61009,11.833008c0.945379,1.583069 1.721709,3.384888 1.725189,4.00412c0.00347,0.619171 1.579041,3.05603 3.50127,5.415222c1.92223,2.359161 4.147301,5.455811 4.944611,6.881378c0.7973,1.425568 3.717939,3.739624 6.490309,5.142395c2.77239,1.402679 5.040691,2.974518 5.040691,3.492889c0,2.149353 -3.59955,1.325531 -8.020041,-1.835541l-4.71797,-3.37384l0.634649,3.089081c1.05402,5.130249 5.19607,11.624451 10.9128,17.109833c5.641542,5.4133 9.158701,7.184326 19.90938,10.025299c7.725479,2.041534 7.89357,3.909729 0.3116,3.463074l-5.33971,-0.314575l1.529819,2.771515c2.015373,3.651093 7.79306,8.890228 9.809101,8.894745c0.878792,0.001984 3.106731,0.865479 4.951,1.918884c1.844242,1.053406 4.60939,1.921173 6.144791,1.928375c3.455627,0.016235 7.401962,0.964966 7.394981,1.777832c-0.002869,0.334229 -1.731079,1.287323 -3.840523,2.118011l-3.835236,1.510315l5.065109,3.047028c4.32045,2.598999 6.014359,3.046997 11.521477,3.046997c6.850372,0 7.892662,0.785217 4.152084,3.128021c-2.283363,1.430115 -2.257751,1.465149 2.816345,3.853424c2.816383,1.325592 5.983604,2.45578 7.038292,2.511536c1.669716,0.088257 1.735931,-0.103729 0.51207,-1.485138zm77.964691,-12.121307c0,-1.936157 -1.235947,-2.570251 -10.49736,-5.385559c-11.960922,-3.635895 -20.226608,-7.46936 -20.226608,-9.380768c0,-1.370056 3.747818,-0.949432 7.467056,0.838043c3.403732,1.635864 20.107391,6.528503 22.288452,6.528503c4.004776,0 1.472733,-2.063812 -5.771652,-4.704376c-3.956741,-1.4422 -9.93486,-4.048523 -13.284683,-5.791779c-3.349823,-1.743256 -7.348785,-3.791962 -8.886597,-4.552704c-3.261948,-1.613617 -4.228943,-2.805786 -3.352936,-4.133606c0.368805,-0.559052 3.463989,0.489594 7.485397,2.53598c3.771133,1.919006 11.46521,5.095306 17.097931,7.058411c5.632736,1.963104 11.047821,3.89032 12.033554,4.282715c1.26059,0.501801 1.792236,0.275269 1.792236,-0.763702c0,-0.812439 -1.036942,-1.770142 -2.304306,-2.128235c-8.858765,-2.503113 -35.16127,-14.98819 -45.838211,-21.758148c-5.086761,-3.225372 -11.379944,-7.998901 -13.984856,-10.607819c-5.419022,-5.427429 -8.788109,-6.74234 -16.730797,-6.529785c-4.312416,0.115387 -6.052864,0.617188 -7.424973,2.140808c-2.278191,2.529694 -2.345161,9.131104 -0.14183,13.977814c3.016769,6.636017 5.978043,11.785675 6.777283,11.785675c0.434235,0 0.78952,0.863464 0.78952,1.918854c0,1.055359 0.505341,1.918884 1.123001,1.918884c0.617653,0 3.21727,1.72699 5.776917,3.837738c2.559647,2.110748 5.071579,3.837769 5.582077,3.837769c0.51049,0 4.478134,1.83139 8.816971,4.069794c10.847061,5.595917 18.061707,8.267944 25.299042,9.369781c3.379623,0.514526 9.140366,1.535339 12.801651,2.268555c3.66127,0.733154 8.154648,1.38446 9.985291,1.447388c2.820633,0.096893 3.32843,-0.220459 3.32843,-2.080231zm-60.568825,-20.155609c-3.474129,-1.484558 -9.061089,-6.186127 -11.447365,-9.633331c-4.722961,-6.822723 -5.449951,-15.086334 -1.391655,-15.818848c1.403511,-0.253326 1.71859,0.482758 1.71859,4.015137c0,2.378967 0.479324,5.540771 1.06517,7.026276c0.99221,2.5159 12.845757,13.692139 14.552841,13.721313c0.422455,0.007233 0.768089,0.444885 0.768089,0.972595c0,1.25415 -1.908119,1.15155 -5.265671,-0.283142zm-1.100861,-10.030823c-0.859825,-0.923492 -2.158859,-2.758392 -2.886726,-4.077606c-1.258057,-2.280182 -1.226639,-2.329803 0.636497,-1.004974c3.918526,2.786346 6.568504,5.194611 6.568504,5.96936c0,1.400604 -2.705872,0.84491 -4.318275,-0.88678zm68.590401,6.384888c-0.332993,-2.731812 -1.178116,-3.328857 -10.554245,-7.455872c-14.296265,-6.292694 -21.247849,-9.979462 -21.786697,-11.554596c-0.295868,-0.864899 0.049133,-1.149384 0.957336,-0.789459c0.78096,0.309509 8.298004,3.400513 16.704575,6.868927c8.406586,3.468445 15.434692,6.306244 15.618011,6.306244c0.183334,0 0.333359,-0.863525 0.333359,-1.918884c0,-1.055359 -0.57608,-1.923553 -1.280167,-1.92926c-3.707764,-0.030029 -30.467926,-16.900726 -30.467926,-19.208191c0,-0.946228 7.262695,2.394043 15.874039,7.300812c9.232254,5.26059 16.682205,8.602173 17.490326,7.845093c1.13475,-1.06308 -0.282196,-2.098694 -8.022003,-5.862946c-12.001755,-5.837067 -21.706589,-12.395142 -22.100113,-14.934326c-0.416,-2.684113 -0.756027,-2.818054 10.583527,4.16864c10.493713,6.465546 19.440796,10.834869 23.100815,11.281372c4.785492,0.583801 2.946472,-1.636108 -4.422043,-5.337891c-18.822235,-9.455841 -42.900085,-26.685455 -48.518875,-34.719116c-4.097397,-5.858398 -20.739388,-10.253082 -24.716728,-6.526947c-3.967529,3.716919 -2.823357,15.781891 2.415131,25.466492c3.311562,6.122253 11.348129,15.510803 14.760887,17.24408c2.245758,1.140564 8.707916,5.407532 13.32518,8.798615c6.053802,4.446106 27.357864,14.751556 34.296951,16.590546c6.511459,1.725647 6.808853,1.649872 6.408661,-1.633331zm-56.20546,-32.954254c-7.860397,-5.404236 -9.602859,-8.460846 -9.602859,-16.845184c0,-5.756653 0.307236,-7.195801 1.536194,-7.195801c1.122925,0 1.710205,1.548615 2.183105,5.756653c0.770935,6.860382 2.62606,10.472229 8.085785,15.742706c3.82135,3.688904 5.061234,5.875336 3.300873,5.820831c-0.42247,-0.013092 -2.898849,-1.488739 -5.503098,-3.279205zm0.618164,-10.311951c-3.235809,-3.535492 -4.667534,-6.374146 -3.543198,-7.025116c1.504135,-0.87088 2.813995,0.21286 4.658493,3.854309c2.136887,4.218689 1.500275,6.028625 -1.115295,3.170807zm-31.215729,43.551239c0,-0.421112 -1.79866,-4.2034 -3.996994,-8.40506c-2.198341,-4.20166 -4.330856,-9.72522 -4.738937,-12.274567c-0.583908,-3.647858 -1.522598,-5.28067 -4.406754,-7.665527c-12.54496,-10.373047 -19.817539,-18.045288 -18.38105,-19.391022c0.290749,-0.2724 5.175743,3.837006 10.85553,9.132019c5.679779,5.295013 10.579811,9.627319 10.888939,9.627319c0.309143,0 0.562073,-0.687958 0.562073,-1.528778c0,-0.84079 -4.545837,-5.578003 -10.101868,-10.527161c-17.735981,-15.798676 -33.58828,-36.195984 -40.056671,-51.541306c-3.412071,-8.094666 -1.770851,-7.811707 2.404358,0.414536c1.96957,3.880569 6.141701,10.293686 9.2714,14.251358c3.129692,3.957687 7.176632,9.138657 8.993183,11.51326c7.256077,9.485229 31.442486,31.111176 33.079472,29.577576c0.264214,-0.247528 -3.785385,-4.521179 -8.999115,-9.49704c-11.893036,-11.350433 -23.266457,-23.701996 -23.266457,-25.267426c0,-0.276276 -2.60667,-4.511108 -5.792603,-9.410812c-10.194649,-15.678543 -17.617958,-31.441406 -23.150549,-49.158478c-0.81595,-2.612946 -1.918991,-4.886749 -2.45118,-5.052948c-1.857672,-0.580109 -5.607851,5.611649 -7.557741,12.478271c-2.612129,9.198639 -2.599539,16.935471 0.03504,21.540527c1.126551,1.969101 2.04826,4.060043 2.04826,4.646515c0,0.586487 1.70652,2.712463 3.792252,4.724411l3.792229,3.658066l-3.024139,-0.707336c-1.66326,-0.389038 -3.833469,-1.390625 -4.822639,-2.225769c-0.989182,-0.835129 -2.09037,-1.244995 -2.44709,-0.910812c-1.789711,1.676651 5.920219,20.033463 11.27096,26.835358c2.31731,2.945801 9.310299,7.763214 12.756611,8.787903c1.12854,0.335571 2.610798,1.241028 3.293907,2.012146c1.036682,1.170197 0.7896,1.401978 -1.49456,1.401978c-1.505138,0 -4.139118,-0.679443 -5.85331,-1.509918c-1.714188,-0.830444 -3.292278,-1.345428 -3.506859,-1.144379c-0.673019,0.630493 9.81908,13.561188 13.215721,16.287292c1.781361,1.429688 3.953148,2.617004 4.826229,2.638458c0.87307,0.021423 2.025219,0.407074 2.560322,0.856995c0.535118,0.44986 3.187218,1.376099 5.893608,2.058228c5.863274,1.477875 5.095848,2.94223 -1.670509,3.187561l-4.694271,0.170227l3.282379,3.206177c3.837723,3.748657 13.891331,8.789124 17.530582,8.789124c1.391006,0 2.813927,0.431732 3.162056,0.959442c0.351372,0.532623 -0.418999,0.965973 -1.731804,0.974091c-5.909912,0.036713 -4.997452,1.583496 5.534637,9.382141c9.76178,7.22821 13.095352,9.037506 13.095352,7.107361zm-15.643402,-22.271027c-4.175552,-3.443298 -6.230873,-6.705811 -4.224487,-6.705811c1.358307,0 9.811935,8.593658 9.451126,9.607697c-0.213837,0.600952 -2.555382,-0.699097 -5.226639,-2.901886zm27.932976,-17.355591c0,-1.107178 -5.191185,-6.218018 -8.725044,-8.589966c-2.855705,-1.916748 -9.065399,-9.507019 -8.336502,-10.18988c0.327599,-0.306915 2.967728,1.439972 5.866959,3.881989c10.219368,8.607666 8.746231,3.450134 -2.008942,-7.033356c-9.783035,-9.53595 -20.750946,-24.985291 -17.737717,-24.985291c0.415878,0 3.834618,3.777786 7.597206,8.395081c3.762581,4.617294 8.648491,10.044739 10.857582,12.061035c3.696411,3.373779 4.06015,3.509644 4.564018,1.704498c0.377525,-1.352417 -0.620239,-3.235535 -3.213203,-6.064545c-12.490456,-13.627411 -28.718521,-38.078629 -35.198494,-53.034424c-5.45694,-12.594574 -9.75626,-24.72934 -10.57605,-29.850769c-0.940479,-5.875458 0.970081,-4.912399 2.58807,1.30455c1.212929,4.660614 4.03791,10.297531 4.103352,8.18782c0.019947,-0.643311 -1.115841,-4.476212 -2.524033,-8.517548c-1.408188,-4.041336 -2.560337,-8.34404 -2.560337,-9.561539c0,-1.217545 -0.498322,-3.429108 -1.107391,-4.914597c-0.60907,-1.485504 -1.315769,-4.85965 -1.570469,-7.498108c-0.2547,-2.638466 -0.722351,-6.308304 -1.03923,-8.155212c-0.316879,-1.846924 -0.630772,-6.488213 -0.697533,-10.31395c-0.066769,-3.82576 -0.380089,-6.955933 -0.69627,-6.955933c-0.71106,0 -11.311928,13.108589 -13.000587,16.076004c-1.791019,3.147255 -4.41942,13.297119 -4.41942,17.066101c0,5.613937 3.766039,13.062332 9.802481,19.3871c5.972839,6.258148 5.451309,8.360382 -0.805691,3.24762c-1.850239,-1.511871 -4.446499,-3.065613 -5.76947,-3.452728c-2.021339,-0.591507 -2.315029,-0.420685 -1.839439,1.069839c1.62302,5.086639 4.756908,17.182404 4.756908,18.360107c0,2.663681 7.687943,12.959335 11.249962,15.065903c8.358078,4.942917 7.286537,7.22554 -1.368172,2.914459c-3.93018,-1.957687 -4.761131,-2.109055 -4.761131,-0.867264c0,2.226547 9.195152,17.630432 10.524254,17.630432c0.627659,0 2.318546,1.039581 3.757549,2.31015c1.438999,1.270584 5.381538,3.85997 8.761181,5.754166c5.682671,3.184998 5.913719,3.443756 3.072395,3.440567c-1.689827,-0.001907 -4.392441,-0.648407 -6.005836,-1.436691c-4.90337,-2.395752 -4.95956,-1.705399 -0.394993,4.852722c4.792591,6.885757 8.882359,10.863693 13.020779,12.664719c3.449516,1.501282 14.374756,7.910706 14.374756,8.433167c0,0.136383 -1.613022,0.247955 -3.58445,0.247955c-1.971474,0 -3.584465,-0.342377 -3.584465,-0.760864c0,-0.418457 -0.691299,-1.009338 -1.536209,-1.31311c-0.844925,-0.303711 -1.536186,-0.07843 -1.536186,0.500641c0,1.440887 17.423904,18.08374 19.970581,19.075348c3.032204,1.180695 9.729233,1.086945 9.729233,-0.1362zm-4.348289,-32.297089c0.21357,-0.600266 -1.424225,-2.947876 -3.63958,-5.216934c-4.954079,-5.074203 -20.611458,-25.412872 -21.786163,-28.29985c-0.471596,-1.158981 -2.260826,-3.92218 -3.976082,-6.140442c-1.715263,-2.218277 -3.118645,-4.392731 -3.118645,-4.832169c0,-0.439407 -2.034424,-4.800034 -4.520966,-9.690277c-2.486519,-4.890244 -5.25774,-10.576675 -6.15823,-12.636536c-2.459053,-5.625 -3.149982,-3.403717 -0.77132,2.479691c6.518211,16.122131 17.224709,33.746094 32.163788,52.944748c2.40789,3.094437 5.077354,6.764297 5.932152,8.155228c2.822861,4.593414 3.232018,5.032013 4.36441,4.678406c0.617279,-0.19278 1.297058,-0.841583 1.510628,-1.441864l0.000008,0zm293.783295,228.033569c-3.449463,-2.541901 -5.967834,-7.079529 -6.33316,-11.411041c-0.156586,-1.856537 -1.08609,-6.397736 -2.065521,-10.091553c-1.329803,-5.015228 -2.515381,-7.280212 -4.681549,-8.943604c-4.083984,-3.1362 -11.799103,-3.710052 -20.833801,-1.549652c-4.36496,1.043732 -11.174652,1.741638 -17.410248,1.784363c-8.7005,0.059601 -10.660217,-0.218262 -13.025513,-1.846832c-1.531281,-1.054321 -2.798676,-2.684753 -2.816345,-3.623138c-0.034943,-1.852386 9.304871,-10.463135 14.605042,-13.464905c4.159332,-2.355743 4.521332,-2.916565 5.915405,-9.165436c0.965546,-4.328003 2.056671,-5.985138 6.852051,-10.406372l5.703613,-5.258606l0.258301,-6.863495c0.288696,-7.670532 1.322296,-10.854218 4.975128,-15.324158c2.312317,-2.829651 4.74173,-4.249176 15.322174,-8.952759c2.196442,-0.976471 6.272797,-3.718231 9.058594,-6.092834c4.35321,-3.710693 5.129303,-4.924255 5.522034,-8.634949c0.590973,-5.58194 -1.190521,-8.655243 -6.312378,-10.889618c-8.798096,-3.838135 -12.843384,-9.929413 -13.576355,-20.443024c-0.52124,-7.476196 2.408356,-19.101776 5.399628,-21.42749c0.851227,-0.661835 1.555084,-1.690125 1.564087,-2.285126c0.035065,-2.319885 15.799194,-18.359131 19.786224,-20.131592c1.841675,-0.818756 4.215515,-2.386169 5.275299,-3.483215c1.059784,-1.097076 3.570129,-2.922913 5.578644,-4.057465c2.008545,-1.134583 5.725739,-3.618347 8.260468,-5.51947c4.204865,-3.153809 11.119415,-7.723206 15.256378,-10.082031c8.534637,-4.86618 14.675812,-8.293152 18.540009,-10.34584c6.357361,-3.37709 18.312622,-11.491852 22.018799,-14.945511c1.689819,-1.574661 8.108582,-7.035645 14.263794,-12.135498c6.633423,-5.495926 12.779968,-11.562576 15.091492,-14.89537c2.145081,-3.09259 7.017334,-9.505325 10.827454,-14.250473c3.810059,-4.745193 7.84906,-10.04628 8.975647,-11.780228c1.126465,-1.733948 3.324219,-5.111237 4.883728,-7.505081c4.039185,-6.200119 7.917908,-13.238739 7.917908,-14.368439c0,-0.530792 1.11322,-3.243576 2.473694,-6.028366c4.549255,-9.311562 7.080383,-24.365036 6.820496,-40.562462c-0.193115,-12.02211 -2.438049,-21.39344 -7.235962,-30.203911c-1.13208,-2.078819 -2.058228,-4.48579 -2.058228,-5.348812c0,-0.863018 -0.864502,-2.715149 -1.921082,-4.115818c-1.056641,-1.4007 -2.979614,-4.86293 -4.273254,-7.693859c-2.718201,-5.948292 -2.278809,-7.21381 3.475342,-10.011322c3.330383,-1.61916 4.198059,-1.691391 7.097107,-0.590908c6.192871,2.350788 19.377747,13.458347 25.527832,21.505997c2.016418,2.638451 4.638489,7.757393 5.826904,11.375404c1.355347,4.126366 3.081421,7.256699 4.63092,8.398567c3.033325,2.235291 7.768372,10.903008 7.776184,14.234581c0.00354,1.54644 1.608887,4.072517 4.352539,6.849129c2.390686,2.419472 5.268494,5.842598 6.395081,7.606941c1.126526,1.764328 3.318054,5.18158 4.870117,7.593918c3.350891,5.208313 3.033875,4.486504 5.929443,13.500687c2.188477,6.813156 2.235718,7.5784 0.886108,14.391556c-1.81366,9.156662 -1.701477,16.283051 0.277954,17.66333c0.824768,0.575134 4.389099,6.574188 7.920654,13.331207l6.420776,12.285522l-0.105225,15.343552l-0.105164,15.343567l2.963013,2.593216c6.289856,5.504776 8.402771,13.61705 6.380615,24.496292c-1.315002,7.07431 -6.034058,17.647827 -10.111206,22.65567c-1.680603,2.064148 -2.773987,4.717682 -2.900452,7.039276c-0.190186,3.488922 -3.248657,11.184174 -7.519897,18.920654c-1.131042,2.048553 -2.129761,6.704559 -2.561279,11.940002c-0.388916,4.720093 -1.2948,9.901062 -2.013,11.513245c-0.718201,1.612213 -1.62384,4.442383 -2.012451,6.289307c-0.388611,1.846924 -2.056335,5.085022 -3.705994,7.195801c-5.299011,6.779816 -6.415161,9.098572 -5.096497,10.587189c0.905762,1.022369 0.801453,2.05011 -0.445496,4.391846c-3.760925,7.062592 -9.66864,12.570404 -18.885864,17.607513c-0.931091,0.50882 -3.536377,2.060303 -5.789429,3.447723c-4.71228,2.901733 -15.500793,7.620117 -17.423279,7.620117c-0.715881,0 -6.875488,1.72699 -13.687805,3.837769c-6.812439,2.110748 -13.360718,3.837738 -14.551819,3.837738c-1.967285,0 -2.122009,0.417145 -1.690735,4.557343c0.631897,6.066132 -1.897278,14.708282 -4.490295,15.343536c-1.077393,0.263916 -1.833496,1.168854 -1.683472,2.014587c0.578186,3.257568 -13.339111,4.988464 -20.057434,2.494537c-2.887207,-1.071808 -3.646667,1.152527 -2.069458,6.061951c3.626709,11.289642 0.10968,19.593323 -9.433228,22.271149c-2.769836,0.777252 -7.240784,1.276184 -9.935242,1.108704c-5.834229,-0.36261 -8.14856,1.02301 -7.258362,4.345551c0.838745,3.130737 -2.068237,9.962891 -5.5802,13.11499c-1.936401,1.738068 -4.782593,2.893707 -8.869873,3.601532c-5.390564,0.933563 -6.406555,0.838074 -9.736145,-0.915039c-3.895813,-2.05127 -7.666626,-1.863312 -8.60556,0.428864c-0.297729,0.726746 -2.666656,2.257263 -5.264252,3.401184c-4.098511,1.804749 -5.854156,2.005035 -13.276031,1.514374c-6.761108,-0.447021 -8.810516,-0.274841 -9.781921,0.821716c-1.965179,2.218384 -11.375427,1.823425 -14.686218,-0.616394zm12.639404,-2.899841l2.515778,-1.961273l-2.41571,-11.199097c-2.124756,-9.850189 -6.555603,-21.260071 -7.802338,-20.092072c-0.242126,0.226807 0.305481,2.462616 1.216858,4.968445c1.606018,4.415833 1.045654,7.006317 -1.203552,5.56366c-0.582855,-0.373779 -2.379578,-3.156586 -3.992798,-6.18399c-1.613129,-3.027405 -3.84552,-6.265503 -4.960663,-7.19577c-2.005615,-1.673096 -2.009491,-1.658295 -0.358521,1.365967c1.625732,2.978149 1.337677,6.563202 -0.444611,5.531281c-1.463715,-0.847443 -6.335541,-11.710663 -7.781494,-17.350983c-0.802917,-3.13205 1.410828,-3.609863 2.933655,-0.63324c2.043243,3.993774 5.805817,4.808136 11.716156,2.535797c4.368134,-1.679413 5.020691,-2.319153 5.785126,-5.671814c1.085571,-4.760559 -0.597076,-10.560059 -4.062531,-14.002777c-1.754456,-1.74292 -2.359589,-3.155396 -1.914703,-4.468689c1.178131,-3.477478 3.476105,-3.140656 8.80127,1.29007c5.683014,4.728577 8.671631,5.272552 13.719604,2.497314c6.135956,-3.373413 5.968933,-10.095551 -0.475647,-19.136688c-4.488525,-6.29715 -4.813385,-7.380615 -2.46579,-8.224579c1.030701,-0.370514 2.844025,0.698364 5.115753,3.015533c1.935608,1.974243 3.521362,3.867126 3.524017,4.206421c0.012909,1.615692 3.689972,1.614655 7.526886,-0.002167c8.463928,-3.56662 11.142456,-9.168243 7.735779,-16.177948c-1.08252,-2.227478 -2.999786,-4.56192 -4.260376,-5.187653c-2.768951,-1.374329 -5.882507,-4.572662 -5.861023,-6.020355c0.043732,-2.93457 1.533142,-3.257751 7.875061,-1.708801l6.354523,1.552032l2.704132,-2.36676c1.487244,-1.301666 3.851898,-4.194733 5.25473,-6.428986c2.50708,-3.993103 2.522339,-4.141937 0.893127,-8.73703c-2.861938,-8.072205 -9.362488,-12.030029 -17.437469,-10.61676c-5.220215,0.913635 -8.732147,0.453369 -8.732147,-1.144348c0,-1.070465 1.050232,-1.43811 6.584015,-2.304749c2.561981,-0.401245 5.225952,-1.75647 7.333221,-3.730591c7.068024,-6.621582 6.409515,-15.967072 -1.481232,-21.021851c-5.178741,-3.317444 -9.674438,-2.866364 -14.37912,1.44278c-5.401764,4.94754 -7.934052,1.757904 -3.659607,-4.609558c1.753815,-2.612701 7.955139,-5.344666 12.653839,-5.574615c2.139618,-0.104736 6.427063,-1.679565 10.157959,-3.731293c3.550659,-1.952515 6.776703,-3.558655 7.168915,-3.569153c0.392273,-0.010498 3.478394,-1.740997 6.858032,-3.845551c3.379639,-2.104584 7.98822,-4.973633 10.241333,-6.375671c5.181152,-3.224152 18.207581,-12.932556 19.132874,-14.259491c0.384338,-0.550964 3.262695,-3.575012 6.39679,-6.720154c3.133911,-3.145111 7.359497,-8.670837 9.390137,-12.279388c3.243713,-5.764404 3.697937,-7.416443 3.740967,-13.606552c0.053833,-7.734406 0.932434,-10.28476 2.906128,-8.435699c1.200623,1.12471 0.789124,13.214966 -0.687622,20.208176c-0.53241,2.52092 -0.330444,3.118164 1.054321,3.118164c0.942139,0 1.438171,0.416397 1.102417,0.925323c-0.335632,0.508942 1.004822,0.29306 2.979187,-0.479721c1.974182,-0.772766 4.321411,-1.405045 5.215942,-1.405045c1.513733,0 16.906372,-14.33696 17.77887,-16.559402c0.231384,-0.589508 -0.400513,-0.761475 -1.536194,-0.41803c-7.106506,2.148956 -10.660767,2.881104 -11.260254,2.319489c-1.15686,-1.083817 1.755676,-3.571365 4.181519,-3.571365c1.254456,0 4.308838,-1.287384 6.787476,-2.86084c2.478699,-1.573471 4.967529,-2.872971 5.530823,-2.887772c0.563232,-0.014786 4.143005,-4.202042 7.954956,-9.304962c7.131775,-9.547073 7.555115,-11.96994 1.605591,-9.189438c-1.667297,0.77919 -3.257385,1.205048 -3.533447,0.946335c-0.791138,-0.741196 6.28656,-4.527008 8.46344,-4.527008c1.38031,0 3.573608,-2.55484 7.423889,-8.64772c3.005676,-4.756241 5.871765,-8.883316 6.36908,-9.171295c1.001465,-0.579788 1.262878,-5.207489 0.29425,-5.207489c-0.33551,0 -1.833313,0.809814 -3.32843,1.799576c-2.665466,1.764572 -9.375305,3.650085 -9.375305,2.634567c0,-0.283524 2.182129,-1.713501 4.84906,-3.177719c4.321228,-2.372406 9.737,-7.136932 11.744629,-10.33226c1.119812,-1.78215 5.937256,-19.272095 5.937256,-21.555191c0,-2.23259 0.513672,-2.384872 -8.582886,2.544373c-3.585144,1.942734 -3.362122,-1.244141 0.288452,-4.121887c4.522766,-3.565178 9.21814,-10.498055 9.891541,-14.605049c0.788574,-4.808861 -1.107483,-22.496574 -2.711304,-25.2929l-1.290344,-2.249924l-0.704956,2.454628c-2.406433,8.37896 -5.511902,8.806427 -4.820801,0.663544c0.531006,-6.257507 -1.58783,-14.453247 -5.111145,-19.769981c-5.358337,-8.08569 -21.779053,-19.011169 -21.779053,-14.49062c0,0.549313 1.374146,3.472389 3.053772,6.49572c1.712646,3.082844 3.766724,9.069927 4.677063,13.632664c0.892822,4.47467 2.236145,10.942085 2.984985,14.372078c2.23291,10.226166 -0.086792,27.858452 -5.743103,43.654404c-7.566406,21.130295 -13.617249,30.926071 -36.720825,59.446976c-2.53479,3.129074 -9.908447,10.682144 -16.386108,16.784576c-12.840271,12.096558 -21.340759,17.926453 -51.125305,35.063202c-17.329987,9.970917 -22.302734,13.032043 -25.029999,15.407959c-0.641632,0.55899 -3.586212,2.246674 -6.543365,3.750366c-2.957214,1.503723 -5.376709,3.213013 -5.376709,3.798462c0,0.585449 -1.109863,1.704132 -2.466309,2.485962c-3.896027,2.245575 -13.143921,10.798187 -16.139923,14.926575c-3.43985,4.739929 -8.067749,14.986359 -9.15979,20.280426c-1.025299,4.970337 0.852081,11.436066 4.688812,16.148529c2.138702,2.626801 3.416779,3.314789 6.15799,3.314789c6.036865,0 9.699463,5.409119 9.99527,14.761536c0.169281,5.349487 -0.180145,6.635101 -2.746338,10.104126c-3.737335,5.052277 -10.243683,9.48822 -20.201141,13.772766c-10.894989,4.687958 -13.29776,8.093933 -13.040619,18.485046c0.192139,7.76236 -0.261475,8.69043 -5.745178,11.754395c-2.420898,1.352661 -8.500488,11.320648 -9.193146,15.072937c-0.870972,4.718323 -1.896149,5.944489 -5.608612,6.708374c-6.343292,1.305237 -14.059387,10.804291 -9.970398,12.274292c2.664307,0.957794 20.856934,-0.034912 23.313049,-1.272125c4.980927,-2.509003 16.709045,-4.303864 22.021637,-3.370209c2.602386,0.457397 3.887787,1.323303 4.611481,3.106445c0.551819,1.359741 1.829956,3.60321 2.84024,4.985413c2.135559,2.921753 3.831848,8.205963 4.810486,14.98587c0.786011,5.445038 2.54126,8.636139 6.462097,11.748322c3.329651,2.643036 5.052124,2.671753 8.301697,0.138367zm-7.904053,-6.053375c-2.10202,-1.804718 -3.476013,-3.605377 -3.053253,-4.001434c0.422791,-0.396057 1.803711,0.163086 3.068939,1.242554c1.265106,1.079468 3.337128,2.463562 4.604492,3.075775c1.267365,0.612183 2.304291,1.529633 2.304291,2.038727c0,1.913239 -3.23349,0.813232 -6.924469,-2.355621zm-9.796478,-45.324066c-0.371918,-0.348419 0.281372,-1.261902 1.451813,-2.029907c2.282135,-1.497467 4.834381,-0.331421 3.546814,1.620392c-0.75766,1.148438 -3.932251,1.408539 -4.998627,0.409515zm23.453796,-18.235962c-0.943115,-2.30246 0.995453,-3.793884 2.952972,-2.271912c0.868896,0.675476 1.579651,1.822906 1.579651,2.549835c0,1.874603 -3.744965,1.644989 -4.532623,-0.277924zm19.399933,-23.327789c-1.502716,-1.555603 -1.601837,-2.165558 -0.545349,-3.358032c1.431641,-1.616119 4.692047,-1.947693 5.601166,-0.569611c0.657318,0.996338 -1.430695,5.828522 -2.518555,5.828522c-0.385559,0 -1.527283,-0.855408 -2.537262,-1.900879zm11.990112,-30.940063c-0.599182,-0.676422 -1.40683,-2.414703 -1.794891,-3.862915c-0.630341,-2.352905 -0.428894,-2.633057 1.892822,-2.633057c2.799164,0 6.13385,2.467285 5.550476,4.106842c-0.196838,0.553192 -1.303131,1.593781 -2.458405,2.312408c-1.703583,1.059631 -2.306335,1.074127 -3.190002,0.076721zm-7.169739,-31.662384c-0.598694,-0.675903 -1.395172,-2.373077 -1.769775,-3.771515c-0.547424,-2.043182 -0.263641,-2.666779 1.444611,-3.174713c2.751556,-0.818146 3.834869,-0.13147 4.435333,2.811493c0.615204,3.014709 -2.408051,6.056061 -4.110168,4.134735zm52.001556,-66.405487c0,-0.761627 0.917786,-1.987 2.039612,-2.723083c2.535767,-1.663971 7.335999,-7.811066 10.185181,-13.042938c2.61615,-4.804108 4.609985,-5.263321 3.641724,-0.838699c-1.039063,4.747131 -4.369568,10.398941 -8.480896,14.391586c-3.758118,3.649689 -7.38562,4.736694 -7.38562,2.213135zm-57.86615,217.018341c1.542267,-1.246002 3.076935,-3.852631 3.629761,-6.165131c0.86322,-3.611023 0.571442,-4.794464 -2.956573,-11.99295c-2.152924,-4.392609 -4.202545,-9.065948 -4.554749,-10.385162c-0.352203,-1.319244 -2.963623,-4.970428 -5.80304,-8.113708c-2.839386,-3.143311 -5.162628,-5.953735 -5.162628,-6.245422c0,-0.291687 -0.96524,-1.095032 -2.144958,-1.785278c-1.751465,-1.024658 -1.567749,-0.468903 1.00119,3.029144c4.232056,5.762421 9.637482,15.072296 9.063477,15.610077c-0.255005,0.238831 -2.02594,-1.304016 -3.935547,-3.428497c-1.909698,-2.124481 -5.023346,-5.589874 -6.919312,-7.700867c-1.895996,-2.110962 -3.893341,-3.838165 -4.438599,-3.838165c-0.545258,0 0.545135,1.7565 2.423096,3.903381c4.374054,5.000275 6.887482,9.421234 6.949768,12.223846c0.063385,2.855011 -1.409851,1.979034 -4.577301,-2.721649c-2.932068,-4.351349 -9.309204,-10.527252 -10.870209,-10.527252c-0.599854,0 -0.093109,1.403168 1.125946,3.118164c1.219116,1.714966 2.906189,4.629272 3.749023,6.476227c0.842865,1.846893 2.14328,4.653229 2.889801,6.236328c0.746582,1.583069 1.893524,5.900543 2.548859,9.594391c2.546692,14.355103 2.687836,14.54422 11.014709,14.759979c3.099579,0.080292 5.039246,-0.489746 6.967285,-2.047455zm-10.280731,-2.702271c-0.887817,-1.345764 -0.831085,-1.377869 5.418793,-3.068665c4.112701,-1.11261 5.376709,-1.175873 5.376709,-0.269165c0,3.303314 -8.985443,6.081512 -10.795502,3.33783zm1.578308,-7.577942c0,-1.55368 4.181824,-3.215942 5.346252,-2.125092c0.566345,0.530609 0.720093,1.434082 0.341644,2.007782c-0.851044,1.289948 -5.687897,1.389771 -5.687897,0.11731zm38.220184,5.962769c2.628174,-1.859436 4.215637,-4.054901 5.375977,-7.435669c1.578491,-4.598938 1.557068,-4.975616 -0.518616,-9.114655c-1.190918,-2.374603 -3.190186,-5.812195 -4.442993,-7.639069c-2.294373,-3.345703 -20.131775,-20.179169 -21.386475,-20.182709c-0.370819,-0.001038 -3.220062,-1.944794 -6.331787,-4.319366c-3.111603,-2.374634 -6.235626,-4.317474 -6.942261,-4.317474c-1.785278,0 3.650208,5.223938 10.187347,9.790955c3.001007,2.096527 5.194794,4.056885 4.875061,4.356354c-0.715363,0.670197 -8.646851,-2.475372 -11.099426,-4.401947c-0.985748,-0.774292 -1.792236,-0.967896 -1.792236,-0.430206c0,0.53772 1.843445,2.1745 4.096527,3.637268c2.253082,1.462738 4.096527,3.289459 4.096527,4.059387c0,2.022003 -8.527039,-2.734802 -14.372955,-8.017975c-7.776459,-7.02771 -8.49704,-5.189667 -1.237,3.15509c9.957062,11.44458 11.307892,13.679016 19.203735,31.763214c3.26236,7.471863 4.308136,8.979889 6.545349,9.438416c1.464386,0.300171 3.814697,0.905701 5.222839,1.345551c3.9729,1.241028 4.539978,1.128754 8.520386,-1.687164zm-12.970245,-3.91333c-2.487823,-2.575317 -2.171967,-2.882721 2.961212,-2.882721c3.509827,0 5.571899,-0.654388 8.376099,-2.658264c2.802246,-2.002289 3.548645,-2.239441 3.025024,-0.960938c-0.382385,0.933563 -0.695251,2.030762 -0.695251,2.438232c0,0.407501 -1.130127,1.88327 -2.511414,3.279572c-3.041138,3.074158 -8.568237,3.462677 -11.15567,0.784119zm3.425751,-5.575287c0,-1.269592 3.679932,-3.162872 6.144775,-3.16153l2.560364,0.001404l-2.417847,1.886963c-2.290039,1.787292 -6.287292,2.59671 -6.287292,1.273163zm37.112,-11.445435c2.201599,-0.842834 4.987976,-5.105835 5.583252,-8.541748c1.636353,-9.447021 -3.597412,-19.15683 -12.437683,-23.074799c-2.950256,-1.307495 -5.943848,-2.377228 -6.652588,-2.377228c-0.708801,0 -3.58252,-1.079346 -6.386108,-2.39859c-2.803711,-1.319214 -5.878845,-2.39859 -6.833801,-2.39859c-0.954956,0 -2.819885,-0.71106 -4.144348,-1.580139c-4.464355,-2.929443 -16.75354,-8.973663 -18.245392,-8.973663c-3.859741,0 1.393738,3.773132 14.957855,10.74292c2.046875,1.051758 2.963501,2.129761 2.588745,3.044647c-0.480652,1.173584 -1.732849,0.931854 -7.304993,-1.410248c-3.698639,-1.554626 -6.93399,-2.630585 -7.189728,-2.390991c-0.255798,0.239563 1.98938,2.084351 4.989288,4.099426c4.390869,2.949402 5.047852,3.718903 3.369507,3.946259c-2.550903,0.345551 -14.746613,-4.661774 -16.685577,-6.850861c-1.706329,-1.9263 -4.227203,-2.084259 -4.227203,-0.264801c0,1.464081 10.234772,10.115936 17.410248,14.71756c2.534698,1.625519 5.362457,3.754639 6.2836,4.731354c0.921387,0.976715 5.990784,6.027466 11.265503,11.223877l9.590393,9.447998l6.388,-0.598694c3.513306,-0.329285 6.969727,-0.821442 7.68103,-1.093689zm-10.665649,-3.012756c-1.50769,-0.216125 -3.299255,-1.022552 -3.980896,-1.792114c-1.066956,-1.204315 -0.405151,-1.352264 4.75061,-1.062225c5.213989,0.293335 6.306763,0.040466 8.432556,-1.950958c1.996094,-1.870026 2.375977,-3.067627 2.079834,-6.556335c-0.384521,-4.529602 0.737732,-5.805725 1.757629,-1.998627c1.091797,4.075165 -1.374512,10.10611 -4.973694,12.161987c-1.801941,1.029327 -3.737244,1.808441 -4.300476,1.731354c-0.563293,-0.077087 -2.257751,-0.316956 -3.765564,-0.533081zm2.977905,-7.878723c-0.590454,-2.115143 -0.027405,-2.954102 1.982483,-2.954102c1.78363,0 1.755188,2.340424 -0.045593,3.740479c-1.106873,0.860535 -1.524475,0.690948 -1.93689,-0.786377zm-85.751526,3.761963c0,-0.52771 -0.460876,-0.959442 -1.024139,-0.959442c-0.563293,0 -1.024109,0.431732 -1.024109,0.959442c0,0.527679 0.460815,0.959442 1.024109,0.959442c0.563263,0 1.024139,-0.431763 1.024139,-0.959442zm31.230377,-18.235199c-1.022705,-1.058594 -2.097382,-1.701782 -2.388275,-1.42926c-0.290955,0.272552 0.359161,1.124969 1.44455,1.894257c2.769379,1.962799 3.121429,1.789307 0.943726,-0.464996zm83.803253,-0.420532c2.255493,-0.471802 3.403137,-1.691345 5.218811,-5.545624c2.146912,-4.557251 2.220398,-5.274414 0.947327,-9.237579c-2.184875,-6.801208 -6.118164,-12.238617 -11.15802,-15.425079c-2.562378,-1.620087 -4.891418,-2.945618 -5.175781,-2.945618c-0.284302,0 -2.450195,-0.811615 -4.813171,-1.803589c-4.426331,-1.858124 -9.586365,-2.620514 -23.751221,-3.509216c-4.504028,-0.282562 -10.792175,-1.14566 -13.973511,-1.917969c-7.599243,-1.844727 -8.679443,-1.832581 -6.986206,0.078644c0.722534,0.815552 1.931091,1.260864 2.685669,0.989532c0.7547,-0.271271 1.372131,-0.127441 1.372131,0.319672c0,1.305939 5.159058,2.770294 11.66748,3.311646c3.31897,0.276062 6.544922,1.001068 7.168884,1.611053c0.856445,0.837463 -1.49939,0.985962 -9.619141,0.606293c-5.914429,-0.27655 -12.089294,-0.813385 -13.721985,-1.192993c-2.003632,-0.465851 -2.748993,-0.357269 -2.292908,0.333984c0.371521,0.563293 4.126953,1.984039 8.345276,3.157166c4.218262,1.173187 7.669617,2.501892 7.669617,2.952728c0,1.40976 -9.999695,0.894714 -14.359619,-0.739594c-5.094635,-1.909668 -6.588013,-0.918732 -2.840942,1.885132c4.846008,3.626068 17.994507,9.482178 24.881531,11.081726c2.816345,0.654114 6.644714,2.024841 8.507629,3.046082c1.862854,1.02121 4.190247,1.856781 5.171997,1.856781c0.98175,0 4.5271,2.063995 7.878479,4.586761c8.917847,6.712708 10.975769,7.92514 12.718933,7.493225c0.862183,-0.213623 2.868652,-0.660553 4.45874,-0.993164zm-6.816956,-5.010406c-1.306641,-1.22406 -0.663574,-2.19873 2.444031,-3.704224c1.719849,-0.83313 4.057983,-2.387115 5.195984,-3.453217l2.069153,-1.938354l-0.331421,2.677979c-0.219604,1.775299 -1.504272,3.416077 -3.811157,4.867706c-3.718079,2.33963 -4.493408,2.555511 -5.566589,1.55011zm-1.146423,-6.962524c-0.321472,-0.487335 0.771057,-1.790375 2.427979,-2.89566c3.765747,-2.512085 5.742737,-0.683197 2.181763,2.01825c-2.594543,1.968201 -3.745544,2.187317 -4.609741,0.877411zm31.699646,-14.390808c2.816345,-0.996643 7.65387,-2.351746 10.75,-3.011292c9.754944,-2.078094 19.940186,-8.57605 13.442566,-8.57605c-1.057617,0 -2.462524,-0.609192 -3.122131,-1.35376c-1.703186,-1.922516 0.110107,-2.716339 5.346252,-2.340454c9.389954,0.674072 16.975037,-3.003296 28.844116,-13.984009c5.550781,-5.135345 5.059448,-6.561493 -1.225586,-3.557648c-2.59082,1.238251 -4.492188,1.606842 -5.44458,1.05545c-1.728516,-1.000763 -1.914307,-0.813202 8.248718,-8.326355c6.022888,-4.452545 8.33252,-6.90744 10.699036,-11.372437c1.659973,-3.131744 3.184326,-6.740173 3.387268,-8.018738c0.202942,-1.278564 0.803406,-3.085114 1.334412,-4.014557c1.259277,-2.204376 1.253052,-11.41037 -0.007751,-11.41037c-0.535217,0 -2.724304,2.050781 -4.864624,4.557312c-11.930237,13.971527 -28.38855,26.176727 -46.393005,34.404175c-5.351074,2.445251 -10.881348,5.18692 -12.289551,6.092621c-1.408203,0.905701 -4.864624,2.207428 -7.680969,2.892792c-9.299683,2.263092 -18.285339,6.741028 -13.526794,6.741028c1.802185,0 24.473145,-8.102081 30.880432,-11.036041c6.858765,-3.140564 18.188843,-9.14328 21.519104,-11.400848c1.467712,-0.994965 2.97052,-1.526123 3.339478,-1.18042c1.083313,1.014923 -11.072998,11.429199 -16.096863,13.79007c-2.53479,1.191162 -6.912903,3.375458 -9.729248,4.854004c-5.451721,2.862061 -18.499634,7.936371 -26.115417,10.15625c-4.146057,1.208527 -4.300232,1.351685 -1.536194,1.426788c1.689819,0.045929 5.585754,-0.543091 8.657532,-1.308929c3.071777,-0.765839 5.798523,-1.192474 6.059448,-0.94809c0.652893,0.611664 0.432922,0.751648 -6.523926,4.152496c-5.251648,2.567261 -5.726624,3.00415 -3.268005,3.00589c4.24292,0.003052 2.476501,1.563538 -4.447083,3.928497c-3.360901,1.148041 -6.110657,2.461212 -6.110657,2.918182c0,0.457001 0.969727,1.73938 2.154968,2.849731c2.432312,2.278687 5.021179,2.092743 13.719055,-0.985291zm-16.898193,-7.326508c0,-0.232697 -0.718445,-0.423096 -1.596619,-0.423096c-0.878174,0 -1.30719,0.438782 -0.953369,0.975098c0.584595,0.886108 2.549988,0.460663 2.549988,-0.552002zm6.336853,-1.078522c-0.739258,-0.27713 -1.622681,-0.243042 -1.962891,0.075745c-0.340271,0.318848 0.264526,0.545593 1.344177,0.503937c1.193054,-0.046051 1.43573,-0.273376 0.618713,-0.579681zm-24.771179,-11.684021c9.967102,-1.792938 19.846436,-5.968658 26.465271,-11.186218c3.911072,-3.083008 7.144531,-11.456085 5.422058,-14.040009c-0.639893,-0.9599 -1.163391,-2.311981 -1.163391,-3.004669c0,-2.899628 -16.411438,-5.333954 -19.614807,-2.909454c-2.723755,2.061584 -27.15802,8.817657 -35.688354,9.867889c-13.854309,1.705719 -15.361938,2.055908 -15.361938,3.56842c0,1.179077 1.519836,1.29892 9.473206,0.746979c5.210205,-0.361572 12.238403,-1.251129 15.618042,-1.976746c7.499207,-1.610046 7.950806,-1.626343 7.46814,-0.269714c-0.594727,1.671509 -15.770325,5.442383 -24.878418,6.181824c-8.984253,0.729401 -14.810303,2.755585 -12.94574,4.502319c1.75769,1.646637 26.172058,1.050323 29.844849,-0.728943c1.633362,-0.791321 3.552307,-1.438721 4.264221,-1.438721c2.604187,0 -1.683167,2.643585 -7.849609,4.840027c-5.211609,1.856354 -8.205383,2.201385 -19.714355,2.272217c-7.463135,0.045929 -13.5625,0.299377 -13.553986,0.563263c0.063812,1.981293 2.524384,2.922882 8.590668,3.287354c3.825439,0.229797 7.25592,0.710785 7.623413,1.068848c0.856384,0.834381 29.92218,-0.251282 36.000732,-1.344666zm0.563232,-6.690704c0.535156,-0.440491 3.277222,-1.570251 6.093628,-2.510559c6.114014,-2.041351 11.92157,-5.434143 17.154175,-10.021545l3.840515,-3.366943l0,2.695709c0,1.994598 -1.33136,3.86673 -5.119263,7.198273c-4.145874,3.646484 -6.250793,4.721497 -11.071106,5.654236c-6.916626,1.338379 -12.308533,1.511932 -10.897949,0.35083zm8.397888,-7.620026c-0.985718,-0.195129 -1.792236,-0.746094 -1.792236,-1.224365c0,-1.290344 8.075989,-4.913727 10.0625,-4.514648c1.261047,0.253326 0.84729,0.776306 -1.5625,1.975281c-1.802551,0.896881 -3.646057,2.190491 -4.096558,2.874664c-0.450439,0.684113 -1.625488,1.084229 -2.611206,0.889069zm36.69043,-1.809998c5.798889,-2.487061 5.897888,-2.592743 3.708313,-3.954773c-3.672913,-2.284668 -2.620056,-3.084229 4.061401,-3.084229c5.342346,0 7.088623,-0.467407 11.376404,-3.045044l5.065186,-3.044983l-3.695496,-1.498169c-2.032349,-0.824005 -3.695313,-1.778015 -3.695313,-2.119995c0,-0.795135 3.878235,-1.775024 7.092529,-1.791992c1.36615,-0.007202 5.744324,-1.53894 9.729248,-3.403809c5.793579,-2.711334 7.810974,-4.263153 10.068298,-7.74472l2.822937,-4.353943l-5.278809,0.309052c-7.877563,0.461212 -7.39209,-1.53244 0.869507,-3.570404c9.650574,-2.380615 13.435791,-4.323883 19.125977,-9.819c5.826294,-5.626617 9.851379,-11.813568 10.864807,-16.700439l0.733093,-3.534637l-4.606018,3.2948c-4.582275,3.277802 -8.957642,4.40036 -8.167542,2.09549c0.226074,-0.659637 2.610535,-2.326385 5.298828,-3.703857c3.305908,-1.69397 5.71106,-3.867615 7.431396,-6.716064c1.398926,-2.316345 3.338562,-5.075043 4.310242,-6.130402c0.971863,-1.055389 2.890747,-4.509369 4.264343,-7.675476c2.011475,-4.636322 2.455627,-7.206268 2.282288,-13.205322c-0.214783,-7.430405 -0.950439,-9.717056 -4.507019,-14.01062l-1.880737,-2.270538l-1.938171,4.189407c-6.897949,14.910538 -14.259521,26.846512 -22.407104,36.330582c-10.586914,12.32373 -28.601807,28.454773 -42.25293,37.834625c-3.661255,2.515717 -6.887268,4.893372 -7.168884,5.28363c-0.481873,0.667694 -10.066284,6.118195 -17.465454,9.932281c-2.35083,1.211761 -3.017029,2.021362 -2.252747,2.737396c1.114807,1.044373 10.281555,-3.184784 19.390625,-8.946136c2.354614,-1.489197 4.507874,-2.707642 4.784912,-2.707642c0.2771,0 4.572327,-2.833832 9.5448,-6.297363c10.537109,-7.339569 34.510803,-29.194366 38.228577,-34.849884c2.579468,-3.923798 5.120667,-5.169373 5.120667,-2.509857c0,1.524261 -7.849854,11.957794 -11.596741,15.413696c-1.226013,1.130737 -3.265991,2.566437 -4.533325,3.190399c-1.267334,0.624023 -2.304321,1.673798 -2.304321,2.332886c0,1.548065 -8.439453,9.152466 -19.461487,17.535828c-10.878906,8.274597 -16.192871,11.723572 -24.320129,15.785004c-3.520447,1.759247 -6.400818,3.763641 -6.400818,4.454163c0,1.645447 2.060913,1.548401 4.54834,-0.214111c1.093384,-0.77478 2.61322,-1.408661 3.377502,-1.408661c0.764343,0 5.530212,-2.590485 10.591003,-5.756622c9.423584,-5.895599 11.536377,-6.776215 10.564514,-4.403534c-0.995361,2.42984 -18.940308,13.958496 -25.123718,16.140625c-1.319946,0.46582 -1.566528,1.493683 -1.163147,4.847168c0.367432,3.053925 0.011902,4.971222 -1.258972,6.788269c-2.221802,3.176727 -1.22876,3.173035 6.223145,-0.023071zm-72.278992,-10.427856c4.224548,-0.807281 9.524414,-1.705719 11.777527,-1.996613c6.492432,-0.838104 18.786316,-5.226288 27.139465,-9.687134c4.224548,-2.256042 8.202881,-4.105133 8.840698,-4.109039c0.637817,-0.003937 2.942139,-1.657623 5.120667,-3.674866c2.178528,-2.017273 4.767456,-3.946564 5.753174,-4.287384c0.985718,-0.340759 1.792236,-1.280762 1.792236,-2.088867c0,-0.808075 0.460876,-1.469238 1.024109,-1.469238c0.563293,0 1.02417,-0.56131 1.02417,-1.247314c0,-0.685974 0.516541,-1.73114 1.147827,-2.322601c2.221985,-2.081512 6.011658,-12.306335 6.016357,-16.232147c0.007019,-5.885986 -2.302612,-7.917389 -9.212463,-8.102234c-7.400818,-0.198059 -11.703369,1.199554 -15.003235,4.873566c-8.118652,9.03894 -30.77887,22.104492 -53.956116,31.110229c-5.539368,2.152374 -9.917542,4.345184 -9.729248,4.872894c0.188354,0.527679 0.572876,0.876251 0.854553,0.774597c0.281616,-0.101654 4.65979,-1.538727 9.729248,-3.193542c5.069458,-1.654785 13.240112,-4.891144 18.15686,-7.191895c9.704102,-4.540924 12.723083,-4.248535 5.693237,0.551422c-5.486267,3.746063 -10.350586,6.120667 -20.762085,10.135437c-8.908142,3.43515 -11.527649,5.838135 -5.33844,4.897186c2.011414,-0.305786 9.011108,-2.363068 15.555054,-4.571747c11.831238,-3.993317 14.338928,-4.282532 11.745056,-1.354523c-2.006653,2.265045 -7.431335,4.587891 -18.904846,8.09494c-11.501953,3.515717 -12.108459,3.845734 -11.189514,6.089233c0.809387,1.976013 2.949097,1.997772 12.725708,0.129639zm43.01355,-20.413116c0,-0.540955 0.423462,-1.127411 0.940857,-1.303345c2.542175,-0.864075 13.396973,-10.920135 13.396973,-12.411102c0,-0.938995 0.460876,-1.974121 1.024109,-2.300262c0.563293,-0.326141 1.02417,-2.757874 1.02417,-5.40387c0,-4.063538 0.278442,-4.761444 1.792236,-4.492432c1.285767,0.228485 1.876404,1.400604 2.089905,4.147949c0.406433,5.228699 -4.104492,13.266907 -10.026978,17.867065c-4.661194,3.620544 -10.241272,5.743317 -10.241272,3.895996zm2.048218,-9.678986c0,-0.856873 6.778015,-6.81543 7.752686,-6.81543c1.03418,0 -1.912537,4.366791 -4.031982,5.975128c-2.431091,1.844849 -3.720703,2.136078 -3.720703,0.840302zm-57.351379,6.825317c8.364197,-2.063507 24.490295,-10.30603 37.892883,-19.368134c3.097961,-2.094696 6.586914,-4.213287 7.753174,-4.707977c2.924011,-1.240265 11.889465,-11.110016 15.314392,-16.858948c3.535339,-5.934235 5.580261,-12.99115 5.596008,-19.311035c0.009888,-3.938568 -0.468506,-5.292877 -2.501648,-7.082184c-2.119324,-1.865265 -3.284302,-2.135925 -7.424927,-1.725098c-8.122498,0.805908 -12.475891,3.148468 -19.796753,10.652679c-9.818726,10.064484 -29.59021,23.740295 -47.074463,32.561157c-6.593689,3.326447 -7.913879,5.280151 -3.179535,4.704987c3.582428,-0.435242 14.736176,-5.939087 24.495819,-12.087494c4.683044,-2.950256 8.715515,-5.364075 8.961121,-5.364075c0.245605,0 0.446594,0.77478 0.446594,1.72171c0,2.68689 -8.81781,8.469635 -25.533081,16.744598c-4.37262,2.164673 -6.58847,4.560181 -4.218079,4.560181c1.628601,0 9.547852,-3.872192 18.438538,-9.015747c4.198669,-2.429016 8.079712,-4.416382 8.624573,-4.416382c0.5448,0 1.787598,-0.67572 2.761719,-1.501648c0.976929,-0.828247 2.035095,-1.101715 2.359558,-0.609833c1.279419,1.93927 -21.257629,16.688019 -28.804626,18.850403c-1.351685,0.387329 -2.304321,1.426849 -2.304321,2.514496c0,1.019806 0.192627,1.854218 0.427979,1.854218c0.502808,0 19.146973,-7.655121 27.089539,-11.122742c3.024353,-1.320343 5.720398,-2.192963 5.991394,-1.939148c1.280334,1.199554 -2.148743,3.241577 -16.482056,9.814728c-14.184692,6.505127 -15.546143,7.353638 -16.149475,10.065063c-0.7229,3.248596 -1.230469,3.174622 7.315674,1.066223zm42.625,-31.682831c-0.302856,-0.459167 1.312744,-2.524078 3.590149,-4.588654c5.364929,-4.863434 8.280945,-10.246796 8.789551,-16.226471c0.746826,-8.781433 4.349731,-8.043945 4.379272,0.896362c0.017456,5.240997 -2.74884,11.565826 -6.394104,14.619843c-3.703186,3.102478 -9.768372,6.203186 -10.364868,5.29892zm3.963684,-14.241089c2.042725,-4.598877 4.260071,-6.819672 5.564758,-5.573517c1.075806,1.027588 -3.657593,8.169159 -5.868835,8.854675c-1.019409,0.31601 -0.947144,-0.464355 0.304077,-3.281158zm46.357727,37.802216l10.786682,-7.913025l-3.782959,-0.994324c-4.011536,-1.054443 -3.947571,-2.368317 0.115479,-2.368317c3.446655,0 13.638916,-5.180145 17.461121,-8.874542l3.22876,-3.120758l-4.694275,-0.170227c-7.379028,-0.267517 -7.062134,-1.610565 0.966431,-4.097015c8.095032,-2.50708 11.750122,-5.164185 18.772034,-13.647003c5.334229,-6.443817 5.752625,-8.161591 1.484924,-6.094025c-3.025879,1.465881 -8.243958,2.003906 -8.243958,0.850006c0,-0.95752 3.429321,-3.159515 4.973267,-3.193451c1.524963,-0.033478 8.823669,-5.146454 11.683838,-8.184845c2.110535,-2.242096 9.970337,-17.081741 9.970337,-18.824478c0,-0.65361 0.549255,-2.611328 1.22052,-4.35054c1.600525,-4.146362 0.781921,-4.700073 -3.409302,-2.306259c-4.982727,2.845886 -6.835449,2.490555 -3.463501,-0.664276c4.425842,-4.141006 8.72467,-13.552261 8.72467,-19.100967c0,-9.736252 -5.938477,-25.031693 -9.791626,-25.21994c-0.597595,-0.02919 -1.687317,2.213593 -2.421387,4.983963c-4.022156,15.178055 -11.551514,31.122528 -24.125854,51.090057c-7.278503,11.557846 -13.801575,19.297348 -27.22644,32.303329c-5.565063,5.391418 -9.908264,9.999237 -9.651611,10.239624c1.566833,1.467896 24.542419,-19.061279 32.048096,-28.635773c1.859619,-2.37204 6.124695,-7.766769 9.478027,-11.988312c3.353333,-4.221512 7.73468,-10.852554 9.736145,-14.735611c2.001587,-3.883057 3.863464,-6.850037 4.137512,-6.593277c1.216858,1.139984 -5.716492,14.599472 -12.71698,24.68692c-9.054749,13.047546 -15.424622,20.224121 -29.134216,32.823456c-5.788818,5.319977 -9.992859,9.939636 -9.799377,10.768036c0.223938,0.958588 3.954712,-1.799744 10.994995,-8.128998c5.860901,-5.268921 10.865417,-9.38385 11.121094,-9.144287c1.243713,1.165161 -7.143494,9.960571 -18.465393,19.364014c-2.654175,2.204468 -3.791565,4.090027 -4.340454,7.19577c-0.408997,2.314728 -1.612305,5.908691 -2.67395,7.986633c-1.061523,2.078003 -1.930237,4.260773 -1.930237,4.850647c0,0.589905 -1.152161,2.535583 -2.560303,4.3237c-5.990906,7.607178 -1.396423,6.365356 11.527893,-3.115906zm-3.18103,-12.002045c-0.527893,-0.80011 8.5896,-9.827423 9.925537,-9.827423c1.726624,0 0.356323,2.776428 -2.654419,5.378571c-5.017029,4.336121 -6.675903,5.351135 -7.271118,4.448853zm-12.090942,-20.783661c3.051758,-1.478424 19.618103,-17.353912 19.618103,-18.799927c0,-0.487122 -0.691284,-0.637115 -1.536194,-0.333405c-0.84491,0.303772 -1.536194,0.894653 -1.536194,1.31311c0,0.418488 -1.613037,0.760864 -3.584473,0.760864c-1.971436,0 -3.584473,-0.111572 -3.584473,-0.247955c0,-0.522461 10.925232,-6.931885 14.374817,-8.433167c1.99176,-0.866791 4.760681,-2.786896 6.153259,-4.266876c3.703003,-3.935501 10.482666,-13.775604 9.880066,-14.340118c-0.284912,-0.266861 -1.92041,0.194275 -3.634644,1.024719c-1.714172,0.830444 -4.406982,1.509659 -5.983887,1.509369c-2.523132,-0.000488 -2.091736,-0.447449 3.594238,-3.723953c3.553833,-2.047867 7.500854,-4.638107 8.771179,-5.756088c1.270264,-1.117966 2.828186,-2.032684 3.462036,-2.032684c1.200562,0 9.070129,-13.25325 10.120667,-17.044479l0.602173,-2.173218l-5.128235,2.413071c-8.517273,4.007751 -10.457947,2.692871 -2.756409,-1.867645c6.274597,-3.715622 10.892029,-11.160873 14.207764,-22.90892c4.059937,-14.385025 3.706848,-15.374207 -3.48053,-9.748718c-5.933228,4.643982 -8.713623,4.475052 -3.947815,-0.239853c7.798035,-7.714783 12.140869,-16.023285 12.140869,-23.227264c0,-5.910995 -5.184326,-17.403252 -11.053833,-24.503143c-3.214355,-3.888199 -6.107422,-7.098251 -6.429077,-7.13343c-0.321655,-0.035179 -0.663818,2.418571 -0.760254,5.452797c-0.385132,12.105972 -4.694824,37.82991 -7.032532,41.975388c-0.595215,1.055389 -1.390381,3.645874 -1.767029,5.756638c-0.989136,5.543121 0.930542,2.413116 3.077698,-5.01799c0.955933,-3.308548 2.074036,-6.015549 2.484436,-6.015549c2.985596,0 -6.066345,26.809036 -14.415649,42.694977c-7.120972,13.548996 -21.837463,34.668945 -30.492126,43.76004c-3.333008,3.501251 -4.261597,5.143677 -3.754333,6.641022c0.571167,1.685791 0.9198,1.798615 2.284729,0.739502c1.972778,-1.530762 14.33374,-15.431168 17.535156,-19.718979c1.280396,-1.714996 2.733643,-3.118179 3.229248,-3.118179c1.333618,0 -0.838989,5.192078 -3.141479,7.507294c-1.097656,1.10376 -1.995667,2.290863 -1.995667,2.638016c0,1.335266 -7.26825,9.758224 -12.771301,14.800064c-5.656799,5.182831 -9.412292,10.239655 -8.34613,11.238373c0.573975,0.537689 7.621948,-4.403595 9.819885,-6.884644c0.718872,-0.811493 1.7276,-1.475403 2.241882,-1.475403c1.904907,0 -1.732239,4.512726 -9.033508,11.207855c-4.132751,3.789734 -7.51416,7.351654 -7.51416,7.915375c0,1.484833 6.789673,1.257935 10.081726,-0.336884zm-0.899963,-34.07225c1.129883,-2.074966 2.529358,-4.047668 3.109985,-4.383804c1.031128,-0.59697 18.565125,-24.962997 19.330994,-26.863022c0.212708,-0.527695 2.053162,-3.549927 4.090027,-6.716064c4.886292,-7.595871 14.600586,-28.2883 13.829163,-29.457657c-0.333679,-0.505783 -2.109985,2.461304 -3.947327,6.593521c-9.192139,20.672577 -24.068665,43.454468 -37.263916,57.065903c-2.774292,2.861694 -4.243958,5.166458 -3.872681,6.072906c0.994751,2.428558 2.559326,1.662842 4.723755,-2.311783z" id="path2206" fill="#7f7f7f"/>
  <ellipse fill="null" stroke="null" stroke-width="null" stroke-dasharray="null" stroke-linejoin="null" stroke-linecap="null" cx="427.299194" cy="260.480347" id="svg_7" ry="1"/>
  <use stroke-width="57" id="svg_33" xlink:href="#svg_32" transform="matrix(1.033,0,0,0.227909,78.7111,202.604) " y="-189.261493" x="117.943219" fill="#7fff00"/>
 </g>
</svg>